<svg xmlns="http://www.w3.org/2000/svg" width="320" height="93" viewBox="0 0 320 93" fill="none"><g opacity="0.5"><path d="M11.4954 31.474C11.4954 20.4754 20.6516 11.5781 31.913 11.5781C43.1744 11.5781 52.3306 20.5082 52.3306 31.474C52.3306 33.017 52.1301 34.5273 51.796 36.0047H63.5253C63.7592 34.5273 63.8594 33.017 63.8594 31.474C63.8594 14.2703 49.557 0.316895 31.913 0.316895C14.269 0.316895 0 14.2703 0 31.474C0 33.017 0.133667 34.5273 0.334168 36.0047H12.03C11.6959 34.5273 11.4954 33.017 11.4954 31.474Z" fill="#00B3AA"></path></g><path d="M8.52072 28.3221L12.0629 35.9719H23.6919L18.1782 24.0541C17.3093 22.2155 15.438 21.0007 13.3327 21.0007C9.48981 21.0007 6.95014 24.8748 8.52072 28.3221Z" fill="#00B3AA"></path><path d="M51.8312 36.0046C49.7259 44.8363 41.639 51.4026 31.9482 51.4026C22.2573 51.4026 14.1705 44.8363 12.0652 36.0046H0.335938C2.57486 51.0743 15.8747 62.631 31.9482 62.631C48.0217 62.631 61.3215 51.0743 63.5604 36.0046H51.8312Z" fill="#00B3AA"></path><path d="M177.241 35.9716L179.781 27.7966C180.383 25.958 180.917 24.0538 181.452 22.1495C181.953 24.0538 182.521 25.9252 183.123 27.7966L185.729 35.9716H177.241ZM124.877 29.7008H119.029V21.7227H124.877C127.484 21.7227 129.255 23.036 129.255 25.7282C129.255 28.4204 127.484 29.7008 124.877 29.7008ZM87.2167 35.9716L89.7564 27.7966C90.3579 25.958 90.8925 24.0538 91.4272 22.1495C91.9284 24.0538 92.4965 25.9252 93.098 27.7966L95.7045 35.9716H87.2167ZM187.4 13.3179H175.604L164.175 46.018V32.1631C164.175 25.5312 160.232 22.4779 155.454 22.4779C151.912 22.4779 149.472 24.0866 147.734 26.2206V13.3179H138.712V22.642C137.509 16.9293 132.864 13.3179 125.613 13.3179H109.205V46.018L97.3754 13.3179H85.5793L73.1816 48.8415H83.2067L84.677 44.2123H98.3779L99.8482 48.8415H109.238H110.241H119.029V38.0728H125.613C132.831 38.0728 137.509 34.4942 138.712 28.7487V48.8415H147.734V34.5927C147.734 31.5065 149.706 30.2917 151.711 30.2917C154.251 30.2917 155.153 31.7363 155.153 34.133V48.8415H163.206H164.175H173.198L174.668 44.2123H188.369L189.84 48.8415H200.232L187.4 13.3179Z" fill="#00B3AA"></path><path d="M72.8801 89.3238L74.3504 89.094L75.7873 82.2979L74.4173 82.0681L74.4841 81.7397H80.733L80.5659 83.8738L80.3654 83.9723L79.7639 82.9217C79.4632 82.3964 79.2627 82.2651 78.4941 82.2651H76.9569L76.2886 85.5154H77.0238C77.7924 85.5154 78.2268 85.2855 78.6278 84.3991L78.8283 84.0051H79.0956L78.3604 87.4853H78.0931L78.0597 87.0913C77.9929 86.2048 77.6921 85.975 76.9235 85.975H76.1884L75.52 89.1268L76.9569 89.3566L76.8901 89.685H72.8467L72.8801 89.3238Z" fill="#98989A"></path><path d="M80.5 87.7147C80.5 85.9418 81.9369 83.9062 83.9419 83.9062C85.0113 83.9062 85.8801 84.6614 85.8801 86.0075C85.8801 87.7804 84.4432 89.8159 82.4382 89.8159C81.3688 89.8159 80.5 89.0608 80.5 87.7147ZM84.7773 86.2373C84.7773 85.1538 84.2761 84.3659 83.4741 84.3659C82.3045 84.3659 81.5693 86.106 81.5693 87.452C81.5693 88.5355 82.0706 89.3234 82.8726 89.3234C84.0756 89.3234 84.7773 87.5834 84.7773 86.2373Z" fill="#98989A"></path><path d="M87.918 84.9572L86.8486 84.6946V84.4647L88.9205 83.8081L89.0207 83.9066L88.72 85.2527L88.8536 85.2855C89.522 84.4319 90.1235 83.8409 90.725 83.8409C91.1594 83.8409 91.4267 84.1036 91.4267 84.4976C91.4267 84.8915 91.0926 85.187 90.7584 85.187C90.4911 85.187 90.2237 84.99 90.0232 84.7274C89.6222 84.9244 89.1878 85.2527 88.6531 85.8437L87.8177 89.685H86.8486L87.918 84.9572Z" fill="#98989A"></path><path d="M93.967 89.3238L95.4374 89.094L96.8743 82.2979L95.5042 82.0681L95.571 81.7397H101.753L101.586 83.8738L101.386 83.9723L100.784 82.9217C100.483 82.3964 100.316 82.2651 99.5142 82.2651H98.0104L97.3421 85.4497H98.0104C98.779 85.4497 99.1466 85.2199 99.5476 84.3334L99.7481 83.9394H100.015L99.2803 87.4196H99.0129L98.9795 87.0256C98.8793 86.1392 98.6788 85.9093 97.9102 85.9093H97.2753L96.6069 89.1597H98.5117C99.2469 89.1597 99.4808 89.0612 99.8818 88.6015L101.152 87.2226L101.319 87.2883L100.584 89.7178H93.9336L93.967 89.3238Z" fill="#98989A"></path><path d="M103.758 89.7175L103.958 89.3236C103.858 87.288 103.691 86.0404 103.457 85.2196C103.357 84.8913 103.223 84.76 102.956 84.76C102.789 84.76 102.588 84.8256 102.288 84.9241L102.221 84.76C102.588 84.366 103.223 83.9064 103.624 83.9064C104.059 83.9064 104.293 84.1362 104.426 84.563C104.694 85.351 104.861 87.0254 104.861 88.5684L104.961 88.6013C105.93 87.5835 106.632 86.6314 106.932 85.8434C106.732 85.4494 106.632 85.0883 106.632 84.76C106.632 84.2018 106.932 83.8735 107.333 83.8735C107.701 83.8735 107.968 84.169 107.968 84.6943C107.968 86.0404 106.164 87.9775 104.125 89.8817L103.758 89.7175Z" fill="#98989A"></path><path d="M111.276 89.0937C111.877 89.0937 112.378 88.8639 112.846 88.4371L113.047 88.5684C112.612 89.225 111.81 89.7832 110.741 89.7832C109.505 89.7832 108.636 88.9952 108.636 87.7148C108.636 86.0732 110.006 83.8735 111.911 83.8735C112.913 83.8735 113.481 84.366 113.481 85.0883C113.481 86.3687 112.078 87.0253 109.772 86.9268C109.638 88.2401 110.106 89.0937 111.276 89.0937ZM112.545 85.0555C112.545 84.563 112.178 84.2347 111.71 84.2347C110.841 84.2347 110.106 85.2525 109.805 86.6314C111.51 86.7955 112.545 86.2046 112.545 85.0555Z" fill="#98989A"></path><path d="M115.386 84.9572L114.316 84.6946V84.4647L116.388 83.8081L116.488 83.9066L116.188 85.2527L116.321 85.2855C116.99 84.4319 117.591 83.8409 118.193 83.8409C118.627 83.8409 118.895 84.1036 118.895 84.4976C118.895 84.8915 118.56 85.187 118.226 85.187C117.959 85.187 117.692 84.99 117.491 84.7274C117.09 84.9244 116.656 85.2527 116.121 85.8437L115.285 89.685H114.316L115.386 84.9572Z" fill="#98989A"></path><path d="M118.529 91.4903C118.529 91.0963 118.797 90.7352 119.164 90.7352C119.632 90.7352 119.833 91.2605 119.799 91.9171C120.534 91.5231 121.169 90.8337 121.637 90.0129C121.47 88.2728 121.069 86.3029 120.735 85.4165C120.534 84.8583 120.367 84.7598 120.066 84.7598C119.899 84.7598 119.732 84.8255 119.432 84.8912L119.365 84.727C119.766 84.2346 120.334 83.8734 120.768 83.8734C121.236 83.8734 121.503 84.0704 121.704 84.727C122.005 85.7448 122.239 87.0252 122.372 88.5355H122.506C123.174 86.8939 123.776 84.8255 124.076 83.7749H124.143L125.112 84.2674C123.809 86.6969 122.239 90.5053 120.768 91.6873C120.334 92.0484 119.933 92.3111 119.465 92.3111C118.83 92.3767 118.529 91.9828 118.529 91.4903Z" fill="#98989A"></path><path d="M127.651 89.3238L129.121 89.094L130.558 82.2979L129.188 82.0681L129.255 81.7397H132.596C134.368 81.7397 135.337 82.4292 135.337 83.7096C135.337 85.0886 134 86.3033 132.129 86.3033C131.694 86.3033 131.226 86.2377 130.892 86.172L130.257 89.1268L131.694 89.3566L131.627 89.685H127.584L127.651 89.3238ZM134.067 83.6768C134.067 82.6919 133.398 82.1994 132.429 82.1994C132.162 82.1994 131.928 82.2322 131.728 82.2651L130.992 85.778C131.226 85.8108 131.46 85.8437 131.794 85.8437C133.398 85.8108 134.067 84.8916 134.067 83.6768Z" fill="#98989A"></path><path d="M139.513 89.1921C139.513 89.028 139.58 88.7325 139.613 88.5355L140.215 86.0403C140.415 85.1539 140.115 84.7271 139.48 84.7271C138.979 84.7271 138.544 85.0226 137.642 85.712L136.74 89.6846H135.771L137.575 81.6081L136.405 81.3454V81.1156L138.644 80.459L138.745 80.5575L137.709 85.2195L137.809 85.2524C138.578 84.4972 139.279 83.9063 140.048 83.9063C141.084 83.9063 141.485 84.6286 141.184 85.8433L140.516 88.6669C140.415 89.0608 140.549 89.1593 141.685 89.1593L141.719 89.3235C141.217 89.619 140.583 89.8488 140.148 89.8488C139.647 89.8159 139.48 89.5205 139.513 89.1921Z" fill="#98989A"></path><path d="M142.421 88.1087C142.421 86.1388 144.459 83.8735 146.063 83.8735C146.598 83.8735 146.899 84.0376 147.166 84.2346L147.768 83.5452L148.001 83.6108L146.865 88.5355C146.765 88.9624 146.865 89.1265 148.035 89.0937L148.068 89.2578C147.567 89.5533 147.032 89.7831 146.598 89.7831C146.063 89.7831 145.829 89.3892 145.996 88.5684L145.863 88.5355C145.161 89.2907 144.693 89.7831 143.925 89.7831C143.022 89.816 142.421 89.1922 142.421 88.1087ZM146.063 88.0102L146.732 85.0882C146.431 84.7928 146.097 84.5301 145.662 84.5301C144.526 84.5301 143.49 86.0732 143.49 87.7476C143.49 88.6669 143.925 89.028 144.459 89.028C144.894 89.028 145.228 88.7982 146.063 88.0102Z" fill="#98989A"></path><path d="M150.14 84.9572L149.07 84.6946V84.4647L151.142 83.8081L151.242 83.9066L150.942 85.2527L151.075 85.2855C151.744 84.4319 152.345 83.8409 152.947 83.8409C153.381 83.8409 153.648 84.1036 153.648 84.4976C153.648 84.8915 153.314 85.187 152.98 85.187C152.713 85.187 152.445 84.99 152.245 84.7274C151.844 84.9244 151.409 85.2527 150.875 85.8437L150.039 89.685H149.07L150.14 84.9572Z" fill="#98989A"></path><path d="M161.334 89.1922C161.334 89.0281 161.401 88.7326 161.435 88.5356L162.036 85.9747C162.237 85.1868 161.969 84.7272 161.334 84.7272C160.933 84.7272 160.298 85.154 159.597 85.7121L158.728 89.6847H157.759L158.594 86.0076C158.761 85.2196 158.494 84.76 157.892 84.76C157.425 84.76 156.79 85.1868 156.088 85.7449L155.219 89.7175H154.25L155.319 85.0226L154.25 84.76V84.5302L156.389 83.8735L156.489 83.972L156.121 85.2853L156.255 85.3181C157.057 84.563 157.759 83.9392 158.494 83.9392C159.296 83.9392 159.664 84.4973 159.63 85.2853L159.764 85.3181C160.599 84.5302 161.334 83.9392 161.969 83.9392C162.905 83.9392 163.339 84.6615 163.072 85.8106L162.37 88.6669C162.27 89.0609 162.404 89.1594 163.54 89.1594L163.573 89.3236C163.072 89.619 162.437 89.8489 162.003 89.8489C161.468 89.816 161.301 89.5205 161.334 89.1922Z" fill="#98989A"></path><path d="M164.376 88.1087C164.376 86.1388 166.414 83.8735 168.018 83.8735C168.553 83.8735 168.854 84.0376 169.121 84.2346L169.723 83.5452L169.957 83.6108L168.82 88.5355C168.72 88.9624 168.82 89.1265 169.99 89.0937L170.023 89.2578C169.522 89.5533 168.988 89.7831 168.553 89.7831C168.018 89.7831 167.784 89.3892 167.952 88.5684L167.818 88.5355C167.116 89.2907 166.648 89.7831 165.88 89.7831C164.977 89.816 164.376 89.1922 164.376 88.1087ZM168.018 88.0102L168.687 85.0882C168.386 84.7928 168.052 84.5301 167.617 84.5301C166.481 84.5301 165.445 86.0732 165.445 87.7476C165.445 88.6669 165.88 89.028 166.414 89.028C166.849 89.028 167.183 88.7982 168.018 88.0102Z" fill="#98989A"></path><path d="M170.926 87.649C170.926 85.8433 172.496 83.9062 174.334 83.9062C175.203 83.9062 175.638 84.4644 175.638 84.8912C175.638 85.2852 175.37 85.6135 175.003 85.6135C174.602 85.6135 174.368 85.3508 174.368 84.8912C174.368 84.6942 174.435 84.4315 174.468 84.2674C172.864 84.3002 172.029 85.9746 172.029 87.4192C172.029 88.6668 172.797 89.0936 173.532 89.0936C174.134 89.0936 174.602 88.831 175.069 88.437L175.27 88.5683C174.802 89.2578 174 89.7831 172.998 89.7831C171.795 89.7831 170.926 88.8638 170.926 87.649Z" fill="#98989A"></path><path d="M176.672 88.9295L177.574 84.9569L176.505 84.6943V84.4645L178.644 83.8078L178.744 83.9063L177.641 88.6012C177.541 89.028 177.741 89.0937 178.777 89.0937L178.811 89.2579C178.309 89.5533 177.674 89.7832 177.207 89.7832C176.739 89.816 176.572 89.3564 176.672 88.9295ZM178.009 81.838C178.009 81.3455 178.376 80.7874 178.877 80.7874C179.178 80.7874 179.446 80.9843 179.446 81.3783C179.446 81.9036 179.078 82.4289 178.577 82.4289C178.276 82.4289 178.009 82.2319 178.009 81.838Z" fill="#98989A"></path><path d="M179.646 88.634C179.646 88.1743 179.947 87.846 180.281 87.846C180.816 87.846 180.983 88.3713 180.716 89.0936C180.95 89.2578 181.351 89.3563 181.752 89.3563C182.387 89.3563 182.955 88.9951 182.955 88.437C182.955 88.0102 182.754 87.7147 182.019 87.3207L181.685 87.1237C181.017 86.7298 180.549 86.4014 180.549 85.6463C180.549 84.7599 181.551 83.9062 182.621 83.9062C183.723 83.9062 184.191 84.4315 184.191 84.8255C184.191 85.1538 183.991 85.4165 183.656 85.4165C183.289 85.4165 182.988 85.121 182.921 84.3987C182.754 84.3659 182.587 84.3331 182.453 84.3331C181.885 84.3331 181.384 84.7599 181.384 85.2195C181.384 85.6463 181.651 85.8761 182.32 86.2701L182.654 86.4671C183.489 86.9596 183.824 87.3207 183.824 88.0102C183.824 89.0608 182.788 89.8159 181.685 89.8159C180.382 89.7831 179.646 89.2578 179.646 88.634Z" fill="#98989A"></path><path d="M185.394 88.4702L186.23 84.7274H185.294L185.361 84.4976L186.564 83.7753L187.165 82.4949L187.7 82.5934L187.332 84.1364H188.936L188.803 84.6946H187.199L186.464 87.9449C186.363 88.3717 186.363 88.6672 186.564 88.8642C186.697 88.9627 186.998 89.0283 187.433 89.0283C187.633 89.0283 187.934 89.0283 188.201 88.9955V89.1925C187.566 89.5208 186.998 89.7506 186.363 89.7506C185.561 89.7506 185.194 89.3567 185.394 88.4702Z" fill="#98989A"></path><path d="M189.504 89.1267C189.504 88.7327 189.838 88.3716 190.273 88.3716C190.674 88.3716 191.041 88.6999 191.041 89.1267C191.041 89.5535 190.707 89.8818 190.273 89.8818C189.838 89.8818 189.504 89.5207 189.504 89.1267Z" fill="#98989A"></path><path d="M194.317 89.3238L195.787 89.094L197.224 82.2979L195.854 82.0681L195.921 81.7397H202.17L202.002 83.8738L201.802 83.9723L201.2 82.9217C200.9 82.3964 200.699 82.2651 199.931 82.2651H198.393L197.725 85.5154H198.46C199.229 85.5154 199.663 85.2855 200.064 84.3991L200.265 84.0051H200.532L199.797 87.4853H199.53L199.496 87.0913C199.429 86.2048 199.129 85.975 198.36 85.975H197.625L196.957 89.1268L198.393 89.3566L198.327 89.685H194.283L194.317 89.3238Z" fill="#98989A"></path><path d="M201.969 87.7147C201.969 85.9418 203.406 83.9062 205.411 83.9062C206.48 83.9062 207.349 84.6614 207.349 86.0075C207.349 87.7804 205.912 89.8159 203.907 89.8159C202.838 89.8159 201.969 89.0608 201.969 87.7147ZM206.246 86.2373C206.246 85.1538 205.745 84.3659 204.943 84.3659C203.773 84.3659 203.038 86.106 203.038 87.452C203.038 88.5355 203.539 89.3234 204.341 89.3234C205.511 89.3234 206.246 87.5834 206.246 86.2373Z" fill="#98989A"></path><path d="M209.354 84.9572L208.284 84.6946V84.4647L210.356 83.8081L210.456 83.9066L210.156 85.2527L210.289 85.2855C210.958 84.4319 211.559 83.8409 212.161 83.8409C212.595 83.8409 212.862 84.1036 212.862 84.4976C212.862 84.8915 212.528 85.187 212.194 85.187C211.927 85.187 211.659 84.99 211.459 84.7274C211.058 84.9244 210.623 85.2527 210.089 85.8437L209.253 89.685H208.284L209.354 84.9572Z" fill="#98989A"></path><path d="M214.968 89.3239L216.138 88.9628L220.449 81.6414H221.184L222.353 89.0284L223.556 89.3239L223.489 89.6523H219.68L219.747 89.3239L221.15 89.0941L220.85 86.8287H217.976L216.773 88.9628L217.675 89.3239L217.608 89.6523H214.901L214.968 89.3239ZM220.749 86.3363L220.281 82.9546H220.181L218.243 86.3363H220.749Z" fill="#98989A"></path><path d="M224.759 88.9295L226.397 81.6081L225.227 81.3454V81.1156L227.466 80.459L227.566 80.5575L225.729 88.6012C225.628 89.028 225.829 89.0937 226.865 89.0937L226.898 89.2578C226.397 89.5533 225.729 89.7831 225.294 89.7831C224.826 89.816 224.659 89.3891 224.759 88.9295Z" fill="#98989A"></path><path d="M228.234 88.9295L229.872 81.6081L228.702 81.3454V81.1156L230.941 80.459L231.041 80.5575L229.203 88.6012C229.103 89.028 229.303 89.0937 230.339 89.0937L230.373 89.2578C229.872 89.5533 229.203 89.7831 228.769 89.7831C228.268 89.816 228.134 89.3891 228.234 88.9295Z" fill="#98989A"></path><path d="M234.251 87.7147C234.251 85.9418 235.688 83.9062 237.693 83.9062C238.762 83.9062 239.631 84.6614 239.631 86.0075C239.631 87.7804 238.194 89.8159 236.189 89.8159C235.12 89.8159 234.251 89.0608 234.251 87.7147ZM238.528 86.2373C238.528 85.1538 238.027 84.3659 237.225 84.3659C236.056 84.3659 235.32 86.106 235.32 87.452C235.32 88.5355 235.822 89.3234 236.624 89.3234C237.827 89.3234 238.528 87.5834 238.528 86.2373Z" fill="#98989A"></path><path d="M238.596 91.7204C238.596 91.4249 238.863 91.1623 239.264 91.1623C239.665 91.1623 239.999 91.4249 240.233 91.7861C240.534 91.4249 240.768 90.7683 240.901 89.8818L241.837 84.6945H240.5L240.567 84.399L241.971 84.0378L242.038 83.611C242.272 82.2978 242.673 81.5427 243.508 80.9189C243.976 80.5905 244.444 80.3936 245.045 80.3936C245.881 80.3936 246.282 80.8532 246.282 81.2472C246.282 81.5755 246.014 81.871 245.613 81.871C245.145 81.871 244.811 81.5098 244.711 80.8532C243.876 80.8532 243.341 81.871 243.04 83.4797L242.94 84.1692H244.377L244.277 84.7273H242.873L242.205 88.5686C241.871 90.4071 241.637 91.031 240.835 91.7861C240.434 92.1801 239.966 92.377 239.498 92.377C238.896 92.377 238.596 92.0487 238.596 91.7204Z" fill="#98989A"></path><path d="M246.448 89.3238L247.918 89.094L249.355 82.2979L247.985 82.0681L248.052 81.7397H251.393C253.164 81.7397 254.133 82.4292 254.133 83.7096C254.133 85.0886 252.797 86.3033 250.926 86.3033C250.491 86.3033 250.023 86.2377 249.689 86.172L249.054 89.1268L250.491 89.3566L250.424 89.685H246.381L246.448 89.3238ZM252.864 83.6768C252.864 82.6919 252.195 82.1994 251.226 82.1994C250.959 82.1994 250.725 82.2322 250.525 82.2651L249.789 85.778C250.023 85.8108 250.257 85.8437 250.591 85.8437C252.195 85.8108 252.864 84.8916 252.864 83.6768Z" fill="#98989A"></path><path d="M258.31 89.1921C258.31 89.028 258.377 88.7325 258.41 88.5355L259.012 86.0403C259.212 85.1539 258.912 84.7271 258.277 84.7271C257.775 84.7271 257.341 85.0226 256.439 85.712L255.536 89.6846H254.567L256.372 81.6081L255.202 81.3454V81.1156L257.441 80.459L257.541 80.5575L256.506 85.2195L256.606 85.2524C257.374 84.4972 258.076 83.9063 258.845 83.9063C259.881 83.9063 260.282 84.6286 259.981 85.8433L259.313 88.6669C259.212 89.0608 259.346 89.1593 260.482 89.1593L260.516 89.3235C260.014 89.619 259.379 89.8488 258.945 89.8488C258.444 89.8159 258.277 89.5205 258.31 89.1921Z" fill="#98989A"></path><path d="M261.216 88.1087C261.216 86.1388 263.254 83.8735 264.858 83.8735C265.393 83.8735 265.694 84.0376 265.961 84.2346L266.563 83.5452L266.796 83.6108L265.66 88.5355C265.56 88.9624 265.66 89.1265 266.83 89.0937L266.863 89.2578C266.362 89.5533 265.827 89.7831 265.393 89.7831C264.858 89.7831 264.624 89.3892 264.791 88.5684L264.658 88.5355C263.956 89.2907 263.488 89.7831 262.72 89.7831C261.817 89.816 261.216 89.1922 261.216 88.1087ZM264.858 88.0102L265.527 85.0882C265.226 84.7928 264.892 84.5301 264.457 84.5301C263.321 84.5301 262.285 86.0732 262.285 87.7476C262.285 88.6669 262.72 89.028 263.254 89.028C263.689 89.028 264.023 88.7982 264.858 88.0102Z" fill="#98989A"></path><path d="M268.937 84.9572L267.867 84.6946V84.4647L269.939 83.8081L270.039 83.9066L269.739 85.2527L269.872 85.2855C270.541 84.4319 271.142 83.8409 271.744 83.8409C272.178 83.8409 272.445 84.1036 272.445 84.4976C272.445 84.8915 272.111 85.187 271.777 85.187C271.51 85.187 271.242 84.99 271.042 84.7274C270.641 84.9244 270.206 85.2527 269.672 85.8437L268.836 89.685H267.867L268.937 84.9572Z" fill="#98989A"></path><path d="M280.13 89.1922C280.13 89.0281 280.197 88.7326 280.23 88.5356L280.832 85.9747C281.033 85.1868 280.765 84.7272 280.13 84.7272C279.729 84.7272 279.094 85.154 278.393 85.7121L277.524 89.6847H276.555L277.39 86.0076C277.557 85.2196 277.29 84.76 276.688 84.76C276.22 84.76 275.586 85.1868 274.884 85.7449L274.015 89.7175H273.046L274.115 85.0226L273.046 84.76V84.5302L275.185 83.8735L275.285 83.972L274.917 85.2853L275.051 85.3181C275.853 84.563 276.555 83.9392 277.29 83.9392C278.092 83.9392 278.459 84.4973 278.426 85.2853L278.56 85.3181C279.395 84.5302 280.13 83.9392 280.765 83.9392C281.701 83.9392 282.135 84.6615 281.868 85.8106L281.166 88.6669C281.066 89.0609 281.2 89.1594 282.336 89.1594L282.369 89.3236C281.868 89.619 281.233 89.8489 280.799 89.8489C280.264 89.816 280.097 89.5205 280.13 89.1922Z" fill="#98989A"></path><path d="M283.171 88.1087C283.171 86.1388 285.209 83.8735 286.813 83.8735C287.348 83.8735 287.649 84.0376 287.916 84.2346L288.518 83.5452L288.751 83.6108L287.615 88.5355C287.515 88.9624 287.615 89.1265 288.785 89.0937L288.818 89.2578C288.317 89.5533 287.782 89.7831 287.348 89.7831C286.813 89.7831 286.579 89.3892 286.746 88.5684L286.613 88.5355C285.911 89.2907 285.443 89.7831 284.675 89.7831C283.772 89.816 283.171 89.1922 283.171 88.1087ZM286.813 88.0102L287.482 85.0882C287.181 84.7928 286.847 84.5301 286.412 84.5301C285.276 84.5301 284.24 86.0732 284.24 87.7476C284.24 88.6669 284.675 89.028 285.209 89.028C285.644 89.028 285.978 88.7982 286.813 88.0102Z" fill="#98989A"></path><path d="M289.722 87.649C289.722 85.8433 291.292 83.9062 293.13 83.9062C293.999 83.9062 294.433 84.4644 294.433 84.8912C294.433 85.2852 294.166 85.6135 293.799 85.6135C293.398 85.6135 293.164 85.3508 293.164 84.8912C293.164 84.6942 293.23 84.4315 293.264 84.2674C291.66 84.3002 290.824 85.9746 290.824 87.4192C290.824 88.6668 291.593 89.0936 292.328 89.0936C292.93 89.0936 293.398 88.831 293.865 88.437L294.066 88.5683C293.598 89.2578 292.796 89.7831 291.794 89.7831C290.591 89.7831 289.722 88.8638 289.722 87.649Z" fill="#98989A"></path><path d="M294.167 91.4903C294.167 91.0963 294.434 90.7352 294.802 90.7352C295.27 90.7352 295.47 91.2605 295.403 91.9171C296.139 91.5231 296.773 90.8337 297.241 90.0129C297.074 88.2728 296.673 86.3029 296.339 85.4165C296.139 84.8583 295.971 84.7598 295.671 84.7598C295.504 84.7598 295.337 84.8255 295.036 84.8912L294.969 84.727C295.37 84.2346 295.938 83.8734 296.372 83.8734C296.84 83.8734 297.108 84.0704 297.308 84.727C297.609 85.7448 297.843 87.0252 297.976 88.5355H298.11C298.778 86.8939 299.38 84.8255 299.681 83.7749H299.714L300.683 84.2674C299.38 86.6969 297.809 90.5053 296.339 91.6873C295.905 92.0484 295.504 92.3111 295.036 92.3111C294.468 92.3767 294.167 91.9828 294.167 91.4903Z" fill="#98989A"></path><path d="M300.482 89.1267C300.482 88.7327 300.817 88.3716 301.251 88.3716C301.652 88.3716 302.02 88.6999 302.02 89.1267C302.02 89.5535 301.685 89.8818 301.251 89.8818C300.85 89.8818 300.482 89.5207 300.482 89.1267Z" fill="#98989A"></path><path d="M80.2672 70.3118H76.1904L75.5889 72.1504H73.4502L76.8253 62.5964H79.5989L83.0742 72.1504H80.8687L80.2672 70.3118ZM79.766 68.7687L78.4627 64.829L78.2288 63.9097L77.9949 64.829L76.725 68.7687H79.766Z" fill="#00B3AA"></path><path d="M95.5062 67.4895V72.1516H93.4678V68.0805C93.4678 67.2925 93.0334 66.8329 92.3651 66.8329C91.6299 66.8329 91.1621 67.391 90.995 68.1789V72.1844H88.9566V68.0805C88.9566 67.2925 88.5221 66.8329 87.8538 66.8329C87.1186 66.8329 86.6508 67.391 86.4837 68.1789V72.1844H84.4453V65.3554H86.3166L86.3835 66.2747C86.9516 65.5196 87.6199 65.1913 88.5556 65.1913C89.6249 65.1913 90.4269 65.6509 90.7945 66.4717C91.3626 65.6181 92.0977 65.1913 93.0668 65.1913C94.5706 65.1584 95.5062 66.0777 95.5062 67.4895Z" fill="#00B3AA"></path><path d="M104.527 69.1967H99.2136C99.3138 70.3458 99.9153 70.9368 101.018 70.9368C101.686 70.9368 102.221 70.7398 102.555 70.116L104.326 70.4771C103.792 71.6591 102.622 72.3814 100.985 72.3814C98.6455 72.3814 97.2754 70.9368 97.2754 68.8027C97.2754 66.6687 98.5786 65.1584 100.918 65.1584C103.357 65.1584 104.56 66.7344 104.56 68.8356V69.1967H104.527ZM99.2136 68.1133H102.555C102.455 67.1283 101.954 66.4717 100.884 66.4717C99.9822 66.4717 99.3472 66.997 99.2136 68.1133Z" fill="#00B3AA"></path><path d="M110.943 65.2239V66.964H110.475C109.406 66.964 108.604 67.2594 108.303 68.4085V72.1842H106.265V65.3552H108.136L108.203 66.6356C108.57 65.7492 109.339 65.2239 110.442 65.2239H110.943Z" fill="#00B3AA"></path><path d="M112.348 62.2036H114.386V64.0093H112.348V62.2036ZM112.348 65.3554H114.386V72.1844H112.348V65.3554Z" fill="#00B3AA"></path><path d="M116.09 68.7698C116.09 66.5701 117.36 65.1912 119.599 65.1912C121.403 65.1912 122.573 66.0119 122.974 67.555L121.069 67.8177C120.902 67.0626 120.467 66.7014 119.665 66.7014C118.663 66.7014 118.095 67.358 118.095 68.8026C118.095 70.1816 118.663 70.9038 119.665 70.9038C120.434 70.9038 120.935 70.477 121.136 69.6234L123.007 69.8204C122.64 71.462 121.437 72.4141 119.632 72.4141C117.493 72.3484 116.09 70.9367 116.09 68.7698Z" fill="#00B3AA"></path><path d="M131.094 67.3582V70.6741V72.1516H129.423C129.356 71.8561 129.323 71.5934 129.256 71.2979C128.755 71.9546 127.953 72.3485 126.883 72.3485C125.413 72.3485 124.377 71.5934 124.377 70.2802C124.377 68.9341 125.346 68.4088 127.151 68.1133L128.654 67.8506C128.855 67.8178 129.055 67.7521 129.189 67.6865V67.4238C129.189 66.8329 128.988 66.4717 127.886 66.4717C126.917 66.4717 126.516 66.7344 126.382 67.5551L124.678 67.3582C124.912 65.8807 125.981 65.1584 127.986 65.1584C130.191 65.1584 131.094 65.9464 131.094 67.3582ZM129.122 70.2145V68.8356C128.988 68.9012 128.821 68.9012 128.654 68.9341L127.518 69.1639C126.716 69.328 126.349 69.6564 126.349 70.1817C126.349 70.8055 126.783 71.1338 127.552 71.1338C128.22 71.1338 128.821 70.8055 129.122 70.2145Z" fill="#00B3AA"></path><path d="M139.682 67.5223V72.1844H137.644V68.0805C137.644 67.2925 137.21 66.8329 136.541 66.8329C135.806 66.8329 135.338 67.391 135.171 68.1789V72.1844H133.133V65.3554H135.004L135.071 66.2747C135.639 65.5196 136.307 65.1913 137.243 65.1913C138.747 65.1584 139.682 66.0777 139.682 67.5223Z" fill="#00B3AA"></path><path d="M152.982 65.7821C152.982 67.6206 151.679 68.9011 149.44 68.9011H147.468V72.1514H145.396V62.5974H149.473C151.779 62.6302 152.982 63.9107 152.982 65.7821ZM150.877 65.7821C150.877 64.7971 150.342 64.2718 149.34 64.2718H147.468V67.2595H149.34C150.342 67.2923 150.877 66.7342 150.877 65.7821Z" fill="#00B3AA"></path><path d="M161.203 67.522V72.1841H159.165V68.0802C159.165 67.2922 158.73 66.8326 158.062 66.8326C157.327 66.8326 156.859 67.3907 156.692 68.1786V72.1841H154.653V62.6301H156.692V66.1759C157.226 65.4865 157.895 65.191 158.764 65.191C160.267 65.1582 161.203 66.0774 161.203 67.522Z" fill="#00B3AA"></path><path d="M169.624 67.3582V70.6741V72.1516H167.953C167.886 71.8561 167.853 71.5934 167.786 71.2979C167.285 71.9546 166.483 72.3485 165.413 72.3485C163.943 72.3485 162.907 71.5934 162.907 70.2802C162.907 68.9341 163.876 68.4088 165.681 68.1133L167.185 67.8506C167.385 67.8178 167.586 67.7521 167.719 67.6865V67.4238C167.719 66.8329 167.519 66.4717 166.416 66.4717C165.447 66.4717 165.046 66.7344 164.912 67.5551L163.208 67.3582C163.442 65.8807 164.511 65.1584 166.516 65.1584C168.755 65.1584 169.624 65.9464 169.624 67.3582ZM167.686 70.2145V68.8356C167.552 68.9012 167.385 68.9012 167.218 68.9341L166.082 69.1639C165.28 69.328 164.912 69.6564 164.912 70.1817C164.912 70.8055 165.347 71.1338 166.115 71.1338C166.75 71.1338 167.385 70.8055 167.686 70.2145Z" fill="#00B3AA"></path><path d="M176.34 65.2239V66.964H175.873C174.803 66.964 174.001 67.2594 173.701 68.4085V72.1842H171.662V65.3552H173.533L173.6 66.6356C173.968 65.7492 174.736 65.2239 175.839 65.2239H176.34Z" fill="#00B3AA"></path><path d="M188.804 67.4895V72.1516H186.766V68.0805C186.766 67.2925 186.331 66.8329 185.663 66.8329C184.928 66.8329 184.46 67.391 184.293 68.1789V72.1844H182.254V68.0805C182.254 67.2925 181.82 66.8329 181.152 66.8329C180.416 66.8329 179.949 67.391 179.782 68.1789V72.1844H177.743V65.3554H179.614L179.681 66.2747C180.249 65.5196 180.918 65.1913 181.853 65.1913C182.923 65.1913 183.725 65.6509 184.092 66.4717C184.66 65.6181 185.396 65.1913 186.365 65.1913C187.835 65.1584 188.804 66.0777 188.804 67.4895Z" fill="#00B3AA"></path><path d="M197.227 67.3582V70.6741V72.1516H195.556C195.489 71.8561 195.455 71.5934 195.389 71.2979C194.887 71.9546 194.085 72.3485 193.016 72.3485C191.546 72.3485 190.51 71.5934 190.51 70.2802C190.51 68.9341 191.479 68.4088 193.283 68.1133L194.787 67.8506C194.988 67.8178 195.188 67.7521 195.322 67.6865V67.4238C195.322 66.8329 195.121 66.4717 194.019 66.4717C193.049 66.4717 192.648 66.7344 192.515 67.5551L190.811 67.3582C191.044 65.8807 192.114 65.1584 194.119 65.1584C196.324 65.1584 197.227 65.9464 197.227 67.3582ZM195.255 70.2145V68.8356C195.121 68.9012 194.954 68.9012 194.787 68.9341L193.651 69.1639C192.849 69.328 192.481 69.6564 192.481 70.1817C192.481 70.8055 192.916 71.1338 193.684 71.1338C194.353 71.1338 194.954 70.8055 195.255 70.2145Z" fill="#00B3AA"></path><path d="M198.964 68.7698C198.964 66.5701 200.234 65.1912 202.473 65.1912C204.277 65.1912 205.447 66.0119 205.848 67.555L203.943 67.8177C203.776 67.0626 203.341 66.7014 202.539 66.7014C201.537 66.7014 200.969 67.358 200.969 68.8026C200.969 70.1816 201.537 70.9038 202.539 70.9038C203.308 70.9038 203.809 70.477 204.01 69.6234L205.881 69.8204C205.514 71.462 204.311 72.4141 202.506 72.4141C200.334 72.3484 198.964 70.9367 198.964 68.7698Z" fill="#00B3AA"></path><path d="M207.585 62.2036H209.623V64.0093H207.585V62.2036ZM207.585 65.3554H209.623V72.1844H207.585V65.3554Z" fill="#00B3AA"></path><path d="M211.328 70.313L213.233 70.116C213.433 70.8383 213.901 71.1666 214.737 71.1666C215.505 71.1666 215.973 70.9039 215.973 70.3458C215.973 69.919 215.706 69.6563 214.904 69.525L213.6 69.2624C212.498 69.0654 211.595 68.5072 211.595 67.2925C211.595 65.9792 212.631 65.0928 214.603 65.0928C216.541 65.0928 217.577 65.7822 217.878 67.0955L216.006 67.2597C215.839 66.5702 215.271 66.3404 214.603 66.3404C213.868 66.3404 213.467 66.603 213.467 67.0627C213.467 67.4238 213.734 67.6865 214.469 67.8178L215.605 68.0148C217.143 68.2774 217.945 68.9012 217.945 70.116C217.945 71.5934 216.775 72.4142 214.703 72.4142C212.932 72.447 211.629 71.7576 211.328 70.313Z" fill="#00B3AA"></path><path d="M224.629 66.6684L222.423 66.5699L222.523 67.522V69.7874C222.523 70.3784 222.791 70.5753 223.292 70.5753H224.629V72.1513H222.858C221.287 72.1513 220.552 71.5931 220.552 70.1814V67.522L220.652 66.5699L219.015 66.6356V65.3223L220.619 65.4208L220.552 64.8627V63.3196H222.557V64.8627L222.49 65.4208L224.696 65.3223V66.6684H224.629Z" fill="#00B3AA"></path><path d="M226.063 70.313L227.968 70.116C228.169 70.8383 228.637 71.1666 229.472 71.1666C230.241 71.1666 230.708 70.9039 230.708 70.3458C230.708 69.919 230.441 69.6563 229.639 69.525L228.336 69.2624C227.233 69.0654 226.331 68.5072 226.331 67.2925C226.331 65.9792 227.367 65.0928 229.338 65.0928C231.276 65.0928 232.312 65.7822 232.613 67.0955L230.742 67.2597C230.575 66.5702 230.007 66.3404 229.338 66.3404C228.603 66.3404 228.202 66.603 228.202 67.0627C228.202 67.4238 228.469 67.6865 229.205 67.8178L230.341 68.0148C231.878 68.2774 232.68 68.9012 232.68 70.116C232.68 71.5934 231.51 72.4142 229.439 72.4142C227.667 72.447 226.364 71.7576 226.063 70.313Z" fill="#00B3AA"></path><path d="M244.077 70.3128H240L239.398 72.1514H237.26L240.635 62.5974H243.408L246.884 72.1514H244.678L244.077 70.3128ZM243.542 68.7697L242.239 64.83L242.005 63.9107L241.771 64.83L240.501 68.7697H243.542Z" fill="#00B3AA"></path><path d="M247.92 70.313L249.825 70.116C250.025 70.8383 250.493 71.1666 251.328 71.1666C252.097 71.1666 252.565 70.9039 252.565 70.3458C252.565 69.919 252.298 69.6563 251.496 69.525L250.192 69.2624C249.09 69.0654 248.187 68.5072 248.187 67.2925C248.187 65.9792 249.223 65.0928 251.195 65.0928C253.133 65.0928 254.169 65.7822 254.47 67.0955L252.598 67.2597C252.431 66.5702 251.863 66.3404 251.195 66.3404C250.46 66.3404 250.059 66.603 250.059 67.0627C250.059 67.4238 250.326 67.6865 251.061 67.8178L252.197 68.0148C253.734 68.2774 254.536 68.9012 254.536 70.116C254.536 71.5934 253.367 72.4142 251.295 72.4142C249.524 72.447 248.254 71.7576 247.92 70.313Z" fill="#00B3AA"></path><path d="M255.973 70.313L257.877 70.116C258.078 70.8383 258.546 71.1666 259.381 71.1666C260.15 71.1666 260.618 70.9039 260.618 70.3458C260.618 69.919 260.35 69.6563 259.548 69.525L258.245 69.2624C257.142 69.0654 256.24 68.5072 256.24 67.2925C256.24 65.9792 257.276 65.0928 259.247 65.0928C261.186 65.0928 262.222 65.7822 262.522 67.0955L260.651 67.2597C260.484 66.5702 259.916 66.3404 259.247 66.3404C258.512 66.3404 258.111 66.603 258.111 67.0627C258.111 67.4238 258.379 67.6865 259.114 67.8178L260.25 68.0148C261.787 68.2774 262.589 68.9012 262.589 70.116C262.589 71.5934 261.42 72.4142 259.348 72.4142C257.577 72.447 256.273 71.7576 255.973 70.313Z" fill="#00B3AA"></path><path d="M264.025 68.7371C264.025 66.603 265.462 65.1584 267.701 65.1584C269.94 65.1584 271.344 66.603 271.344 68.7371C271.344 70.8711 269.907 72.3485 267.701 72.3485C265.429 72.3485 264.025 70.904 264.025 68.7371ZM269.305 68.7371C269.305 67.391 268.771 66.6687 267.701 66.6687C266.632 66.6687 266.097 67.391 266.097 68.7371C266.097 70.0832 266.632 70.8383 267.701 70.8383C268.771 70.8383 269.305 70.0832 269.305 68.7371Z" fill="#00B3AA"></path><path d="M272.815 68.7698C272.815 66.5701 274.085 65.1912 276.324 65.1912C278.129 65.1912 279.298 66.0119 279.699 67.555L277.794 67.8177C277.627 67.0626 277.193 66.7014 276.391 66.7014C275.388 66.7014 274.82 67.358 274.82 68.8026C274.82 70.1816 275.388 70.9038 276.391 70.9038C277.16 70.9038 277.661 70.477 277.861 69.6234L279.733 69.8204C279.365 71.462 278.162 72.4141 276.358 72.4141C274.219 72.3484 272.815 70.9367 272.815 68.7698Z" fill="#00B3AA"></path><path d="M281.436 62.2036H283.474V64.0093H281.436V62.2036ZM281.436 65.3554H283.474V72.1844H281.436V65.3554Z" fill="#00B3AA"></path><path d="M291.862 67.3582V70.6741V72.1516H290.191C290.158 71.8561 290.091 71.5934 290.024 71.2979C289.523 71.9546 288.721 72.3485 287.652 72.3485C286.181 72.3485 285.146 71.5934 285.146 70.2802C285.146 68.9341 286.115 68.4088 287.919 68.1133L289.423 67.8506C289.623 67.8178 289.824 67.7521 289.924 67.6865V67.4238C289.924 66.8329 289.724 66.4717 288.621 66.4717C287.652 66.4717 287.251 66.7344 287.117 67.5551L285.413 67.3582C285.647 65.8807 286.716 65.1584 288.721 65.1584C290.993 65.1584 291.862 65.9464 291.862 67.3582ZM289.924 70.2145V68.8356C289.79 68.9012 289.623 68.9012 289.456 68.9341L288.32 69.1639C287.518 69.328 287.151 69.6564 287.151 70.1817C287.151 70.8055 287.585 71.1338 288.354 71.1338C288.988 71.1338 289.623 70.8055 289.924 70.2145Z" fill="#00B3AA"></path><path d="M298.846 66.6684L296.641 66.5699L296.741 67.522V69.7874C296.741 70.3784 297.009 70.5753 297.51 70.5753H298.846V72.1513H297.075C295.505 72.1513 294.77 71.5931 294.77 70.1814V67.522L294.87 66.5699L293.232 66.6356V65.3223L294.836 65.4208L294.77 64.8627V63.3196H296.775V64.8627L296.708 65.4208L298.88 65.3223V66.6684H298.846Z" fill="#00B3AA"></path><path d="M300.618 62.2036H302.657V64.0093H300.618V62.2036ZM300.618 65.3554H302.657V72.1844H300.618V65.3554Z" fill="#00B3AA"></path><path d="M304.36 68.7371C304.36 66.603 305.797 65.1584 308.036 65.1584C310.275 65.1584 311.679 66.603 311.679 68.7371C311.679 70.8711 310.242 72.3485 308.036 72.3485C305.764 72.3485 304.36 70.904 304.36 68.7371ZM309.64 68.7371C309.64 67.391 309.106 66.6687 308.036 66.6687C306.967 66.6687 306.432 67.391 306.432 68.7371C306.432 70.0832 306.967 70.8383 308.036 70.8383C309.106 70.8383 309.64 70.0832 309.64 68.7371Z" fill="#00B3AA"></path><path d="M319.999 67.5223V72.1844H317.96V68.0805C317.96 67.2925 317.526 66.8329 316.858 66.8329C316.123 66.8329 315.655 67.391 315.488 68.1789V72.1844H313.449V65.3554H315.321L315.387 66.2747C315.955 65.5196 316.624 65.1913 317.56 65.1913C319.063 65.1584 319.999 66.0777 319.999 67.5223Z" fill="#00B3AA"></path></svg>