<svg xmlns="http://www.w3.org/2000/svg" id="Layer_2" data-name="Layer 2" viewBox="0 0 309.67 84.65"><defs><style>      .cls-1 {        fill: #050505;      }      .cls-2 {        fill: #010101;      }      .cls-3 {        fill: #3b88da;      }      .cls-4 {        fill: #fefefe;      }    </style></defs><g id="Layer_1-2" data-name="Layer 1"><path d="M239.09,30.84c-.29.55-2.12,3.16-1.68,3.59,4.65-.44,5.08,3.95,5.38,7.44.04.51,2.76-.45,3.25-.02.38.34.39,2.63-.12,2.63h-5.76c-.08,0-.59.03-.6-.24,0,0-.01-4.04,0-5.39,0-.64-.54-1.98-1.44-2.15-.82-.15-1.83-.2-2.45.42-.38.38-.89,2.06-.9,2.69-.03,1.11.66,3.09,0,4.43-.3.6-3.17.63-3.37-.16-.08-.34.11-3.21.31-4.45.09-.56.67-2.35.9-2.94.38-.98,1.84-2.93,1.93-3.58.07-.49-.04-.32-.36-.36-.84-.12-1.89.09-2.76,0v-5.98c.67.11,2.92-.26,3.25.22.48.69-.47,3.85.46,3.85h3.96Z"></path><path class="cls-2" d="M168.83,35.26c.26-2.61,1.41-4.45,3.84-5.51-.21-.55-1.72-3.43-1.44-3.7.53.1,2.89-.16,3.09.02.14.12.95,2.98,1.36,3.55.56.8,1.86.71,2.74,1.81.45.57,1.44,2.7,1.44,3.35v9.69c-.68-.13-2.84.35-3.08-.39-.42-2.47.76-9.48-.83-11.26-1.02-1.14-2.98-.89-3.59.46-.06.14-.41,1.87-.41,1.98v8.86c0,.76-2.6.05-3.12.12.21-2.88-.29-6.14,0-8.98Z"></path><path class="cls-2" d="M251.56,25.09v3.83c0,.06.93.51,1.07.72h2.53s0,4.06,0,4.06h4.44c.55,0,.33,2.16.36,2.63h-4.8s0,7.9,0,7.9h-3.12v-7.9h-4.44c-.53,0-.53-2.63,0-2.63h4.44c.49-2.54-1.17-1.57-2.48-2.67-.32-.27-1.12-1.44-1.12-1.76v-4.19h3.12Z"></path><path class="cls-2" d="M125.66,44.24c-.94-.14-1.98.12-2.86.15-.76.02-.24-.65-.24-1.21,0-.72.09-4.07-.09-4.64-.01-.04-.05-.07-.1-.08-1.16-.39-2.47-.12-3.67-.56-3.06-1.13-3.27-4.88-2.57-7.59.84-3.24,4.56-3.59,7.46-3.27.4.04,2.36.54,2.51.72.35.4-.34,1.52-.44,2.17-.01.1-.1.16-.19.13-3.55-1.34-7.33-.78-6.47,3.96.57,3.18,6.35,1.67,6.66,2.09"></path><path class="cls-2" d="M204,44.47c-2.26-.21-4.72-.77-5.49-3.16-.61-1.93-.66-7.86-.13-9.81.94-3.42,5.62-4.01,8.62-3.22,2.21.58,1.56.93,1.14,2.79-1.66-.27-5.26-1.1-6.39.56-.76,1.11-.76,7.75-.19,9.02.8,1.79,5.4,1.63,7.07,1.2v2.63"></path><path class="cls-2" d="M161.39,27.01v3.95c0,.05.75.6.84.6h3.96l-2.66,10.15c.09.55,2.84.36,3.38.39l-.14,2.4c-2.2-.05-4.41.16-6.58-.25.44-3.42,1.14-6.69,2.39-9.91-.15-.48-2.21-.63-2.85-1-.27-.16-1.46-1.55-1.46-1.66v-4.67h3.12Z"></path><path class="cls-1" d="M222.31,34.91c-.03.48.19,2.63-.36,2.63h-6.48c-.53,0-.53-2.63,0-2.63h6.83Z"></path><path d="M156.84,42.09c-2.44-.11-3.66.79-2.81-2.2.95-3.33,4.04-8.39.81-11.36-.49-.45-1.67-.96-2.33-1.15-2.82-.82-11.35-.61-14.13.47-5.33,2.07-5.07,10.06.7,11.26,1.94.4,5.12-.72,5.52-2.9.27-1.45-.38-6.3.22-7.15.2-.28,2.02-.42,2.19.46.4,2.17-.84,5.21,1.04,6.98,1.18,1.11,1.91.6,3.16.8,1.09.18.15.98-.04,1.64-.51,1.74-.84,3.55-1.28,5.31,1.42-.15,5.77.77,6.81.03.35-.25.04-1.7.14-2.18ZM141.49,35.98c0,.15-.78.79-1.09.84-3.89.65-3.62-8.66,1.09-7.66v6.82ZM152.77,34.57c-.58,1.45-2.65.6-2.65-.03,0-1.25-.24-4.29,0-5.27.15-.62,2.03.05,2.4.54.67.88.65,3.74.25,4.75Z"></path><path d="M113.66,39.82c-.97-2.6-4.83-1.79-5.16-2.27.23-6.04-2.7-7.3-8.18-6.04-.5.11-.89.55-1.38.52-.73-.04-2.46-.84-3.65-.93-2.93-.21-5.43.7-5.85,3.92-.37,2.88.28,6.49,0,9.46,1.12,0,2.01-.48,3.12,0v-9.22c0-.07.46-1.14.55-1.25.77-.93,4.25-.71,4.25.29v9.81c0,.57,2.52-.1,3.12.12v-10.17c0-.4,2.37-.84,2.89-.75.69.13,1.91,1.37,1.91,1.94v9.22h4.92c.12,0,2.05-.74,2.26-.86,1.36-.79,1.75-2.37,1.21-3.81ZM110.98,41.8c-.17.34-.85.49-1.04.52-2.15.35-1.46-1.08-1.54-2.62.85,0,2.43-.23,2.64.84.06.29.07,1.03-.05,1.26Z"></path><path class="cls-2" d="M290.09,31.04c-.24-.08-1.22-1.78-1.77-2.12-1.94-1.2-2.87.17-2.49-3.56.01-.14-.09-.26-.23-.26h-2.42c-.12,0-.22.1-.23.22-.05.8.21,2.5-.01,2.86-.07.11-1.93.77-2.34,1.13-1.33,1.15-1.49,3.64-.93,5.2.47,1.29,1.4,1.77,2.32,2.56.13.11.08.31-.07.38-2.44,1.11-3.24,4.09-3.04,6.6,0,.12.11.21.23.22.86.02,1.76-.14,2.58.1.16.05.32-.06.31-.22-.1-2.02.32-5.68,2.79-5.66,2.78.02,2.31,5.6,2.74,5.9.33.23,2.98.26,3.07-.24.03-.15-.15-2.73-.2-3.1-.12-.87-.78-2.06-1.41-2.66-.57-.55-2.24-1-1.94-1.66.17-.37,1.31-1,1.68-1.45.67-.82.81-1.35,1.12-1.81.55-.79,2.22.18,3.25.05.11-.01.19-.12.19-.23v-2c0-.13-.1-.23-.22-.23-.65-.02-2.48.16-2.98,0ZM286.71,33.24c-.08.39-.32,1.72-1.14,2.09-.33.15-1.49.1-1.87-.07-1.04-.46-1.39-2.58-1.19-3.58.35-1.83,5-2.15,4.2,1.56Z"></path><path class="cls-2" d="M301.13,36.09c0-.13.14-.23.27-.22,2.72.05,5.06-2.63,4.8-5.32-.36-3.68-4.97-4.44-7.9-3.46-2.9.97-3,3.77-2.29,6.4,0,.02.01.04.03.06l4.33,7.91c.08.14.02.33-.13.39-.88.34-1.84.31-2.74.09-.17-.04-.34.08-.34.26v2.01c0,.15.12.27.27.27h7.54c.18,0,.32-.17.26-.35-.58-1.75-4.11-6.76-4.08-8.04ZM299.82,33.88c-1.02-.37-2.06-4.68.81-4.95,2.34-.22,3.24,1.97,2.06,3.75-.41.62-2.2,1.44-2.87,1.2Z"></path><path class="cls-2" d="M195.21,38.92c-1.18-1.39-4.52-1.02-4.77-1.41-.22-.36-.24-2.21.57-2.36,2.27-.42,4.83,1.36,4.2-2.39h-4.7c-.05,0-.1-.04-.1-.1v-5.65h-3.12v5.75h-4.44c-.52,0-.52,2.39,0,2.39h4.44v8.98c0,.2.16.36.36.36h4.8c.11,0,1.29-.15,2.1-.77,1.45-1.12,1.79-3.46.66-4.79ZM190.63,42.22c-.37-.25-.43-2.29.17-2.49,3.01-1,3.52,3.42-.17,2.49Z"></path><path class="cls-2" d="M276.75,29.88c-.15-.15-2.86.18-3.45-.03-.24-.08-.9-1.55-1.37-1.98-1.92-1.76-7.34-1.62-8.66.89-.93,1.77-.67,3.34.04,5.08.66,1.61,2.39,3.81,2.64,5.5.21,1.4-.1,3.2-.03,4.71.01.24.21.41.45.41.89.01,2.46.26,2.67-.37.17-.52.1-4.23,0-4.97-.13-.98-.7-1.78-.88-2.72-.05-.26.13-.52.39-.54,1.49-.11,3.4-1.09,4.08-2.3.19-.34.34-1.53.63-1.53h3.07c.27,0,.49-.24.45-.5-.1-.64.03-1.59-.04-1.66ZM267.63,33.85c-1.7.3-2.1-3.28-1.46-4.29.52-.83,2.84-.81,3.55-.09,1.53,1.53-.07,4.03-2.09,4.39Z"></path><g><path class="cls-3" d="M50.25.8c.98.45,2.7.65,3.85,1,25.1,7.52,37.12,36.85,24.91,60.22-5.78,11.05-17.91,20.53-30.38,22.1-.76.1-1.01-.18-1.72.25-3.17.32-6.56.44-9.72,0-.44-.06-.97-.16-1.44-.23-.94-.15-1.84-.47-2.81-.48-1.47-.47-3.05-.75-4.54-1.26C13.14,77.08,1.24,62.37.11,45.95c-.14-2.08-.14-5.26,0-7.35C1.33,20.7,15.82,4.09,33.35,1.03c1.3-.23,3.74-.62,4.84-.96.39-.12,5.84-.08,6.51,0,1.31.15,2.64.37,3.95.6.51.09,1.08.14,1.6.13Z"></path><path class="cls-4" d="M60.51,14.04c-1.25,0-2.51,0-3.76,0-4.18.01-8.85.3-12.83,1.74-1.91.69.1,1.08.83,1.46,1.16.61,2.39,1.31,3.49,2.02.58.37,2.35,1.87,2.81,1.98.86.2,1.23-.2,1.91-.31,5.01-.8,10.32-.58,15.08.99.32.11,1.16.26,1.38.42.15.11,1.77,2.71,1.96,3.08.62,1.19-.64.72-1.49.79-9.27.69-19.85,4.25-26.8,10.65-.26.24-.99.88-.96,1.2.03.34,3.15,3.44,3.65,4.04.38.45,1.8,2.57,2.09,2.71.66.31,1.14-.63,1.61-1.02,6.54-5.29,16.2-8.75,24.59-8.2.56.04,1.13.03,1.24.67.34,1.94.5,4.65.49,6.62,0,.24-.17,1.86-.24,1.94-.23.28-1.99.45-2.45.54-1.68.34-3.45.71-5.11,1.22-.41.13-1.48.42-1.52.87l.48,3.97c-.14,1.48.17,3.26,0,4.7-.06.53-.66,1.34.17,1.62,1.86-.66,3.71-1.53,5.68-1.8.02.17,0,.32-.06.48-.23.79-1.34,2.7-1.81,3.48-1.97,3.3-4.59,6.2-7.45,8.74-.38.18-.42.03-.35-.35.21-1.12,1.06-2.79,1.39-4.01,1.98-7.26,1.8-18.6-1.44-25.46-.23-.48-.46-.86-1.06-.67-1.46.66-3.02,1.08-4.47,1.75-.56.26-3.28,1.67-3.44,2.07-.07.17.78,2.64.89,3.08.27,1.06.55,2.21.72,3.24.2,1.22.26,2.49.36,3.72-.1.65-.51.63-.88.91-.86.65-1.74,1.29-2.57,1.98l-.41.07c-.41-.88-.73-1.82-1.16-2.7-3.67-7.64-9.49-14.11-16.46-18.8-.49-.28-1.02.36-1.31.72-.92,1.15-2.01,2.95-2.69,4.27-.25.47-1,1.86-1.1,2.26-.22.93.17.76.62,1.11,4.1,3.2,7.3,6.01,10.16,10.46,1.34,2.08,4.16,7.38,4.34,9.71.37,4.76-5.74,5.46-6.95,1.71-.48-1.49.47-3.83,1.04-5.26.39-.97,1.27-2.38,1.53-3.27s-.48-1.84-.97-2.6c-.39-.61-.91-1.33-1.34-1.9-.96-1.26-2.09-2.39-3.1-3.61-.36-.13-.64-.12-.89.19-.76.93-1.77,3-2.35,4.13s-1.02,2.26-1.54,3.38c-.08.17-.22.22-.4.2s-2.37-1.87-2.77-2.15c-5.15-3.63-11.36-6.22-17.54-7.48-.89-.18-1.17.22-1.25-.91-.15-2.22-.02-5.64.37-7.82.08-.45.28-.97.76-1.04,1.52-.21,3.18.18,4.66.37,1.1.13,2.2.19,3.31.39.82.15,1.77.92,2.36-.33,1.13-2.55,2.69-4.86,4.28-7.13.06-.32-.03-.46-.31-.61-.68-.35-2.63-.77-3.46-.96-1.23-.28-2.68-.57-3.92-.74-.74-.1-3.45-.16-3.87-.43-.11-.07-.19-.2-.06-.3,1.07-1.27,1.92-4.09,3.62-4.54,10.23-2.73,22.23.9,29.87,8.09.45.42,2.13,2.39,2.48,2.45l8.02-3.92c.11-.33-.57-1.02-.82-1.31-5.99-6.88-15.91-11.55-24.77-12.58h-7.34c-.05-.2.06-.24.18-.36.14-.14.92-.63,1.15-.77,2.86-1.72,6.47-3.17,9.73-3.91,6.36-1.46,13.98-.95,20.09,1.51,1.48.6,4.7,2.13,5.85,3.13.14.12.29.19.25.41Z"></path><path class="cls-4" d="M32.7,74.97c-.4-.02-.86.13-1.14-.23-1.07-1.99-2.23-3.96-3.63-5.73-2.1-2.64-5.15-5.55-7.94-7.41-.43-.29-1.69-1.11-2.09-1.26-.2-.08-.38-.08-.59-.07.03.41-.05.86,0,1.27.14,1.21.87,3.21,1.26,4.39.08.25.08.53.18.78l-.43-.05c-3.07-2.87-5.4-6.45-7.22-10.24.18-.15,2.27.62,2.65.76,6.38,2.47,12.52,7.42,16.39,13.09,1,1.47,1.87,3.06,2.57,4.69Z"></path><path class="cls-3" d="M31.35,22.74c.58-.16,3.03.73,3.72,1.01,1.13.45,2.64,1.19,3.7,1.81.29.17,1.05.54.96.92-.05.2-2.78,2.28-3.21,2.67-5.62,5.14-9.16,12.15-10.35,19.66-.06.38-.1,1.74-.35,1.82-.49.17-2.21-1.1-2.76-1.4-1.81-.96-3.69-1.8-5.59-2.55-.23-.19-.2-.63-.16-.91.97-6.63,5.64-14.77,10.2-19.58.54-.57,3.34-3.33,3.85-3.46Z"></path></g><g><path d="M91.51,58.93h-1.91v-9.74h2.98l1.78,7.66,1.77-7.66h2.94v9.74h-1.91v-6.59c0-.19,0-.45,0-.8s0-.6,0-.79l-1.85,8.17h-1.99l-1.84-8.17c0,.18,0,.45,0,.79s0,.61,0,.8v6.59Z"></path><path d="M100.81,49.2h2.03v9.74h-2.03v-9.74Z"></path><path d="M112.67,58.93h-2.05l-4-6.92v6.92h-1.91v-9.74h2.15l3.9,6.8v-6.8h1.91v9.74Z"></path><path d="M114.42,49.2h2.03v9.74h-2.03v-9.74Z"></path><path d="M121.91,57.53c.48,0,.87-.05,1.18-.16.57-.2.86-.58.86-1.13,0-.32-.14-.57-.43-.75-.28-.17-.73-.32-1.34-.46l-1.04-.23c-1.02-.23-1.72-.48-2.11-.75-.66-.45-.99-1.15-.99-2.11,0-.87.32-1.6.96-2.17s1.57-.87,2.81-.87c1.03,0,1.91.27,2.64.82s1.11,1.33,1.15,2.37h-1.97c-.04-.59-.29-1-.77-1.25-.32-.16-.72-.24-1.19-.24-.53,0-.95.11-1.26.32s-.47.51-.47.89c0,.35.16.61.47.78.2.11.62.25,1.28.4l1.69.4c.74.18,1.3.41,1.67.71.58.46.88,1.12.88,1.99s-.34,1.63-1.03,2.22-1.65.88-2.9.88-2.28-.29-3.01-.87-1.1-1.38-1.1-2.39h1.95c.06.44.18.78.37,1,.33.4.9.6,1.71.6Z"></path><path d="M134.55,49.2v1.72h-2.93v8.01h-2.06v-8.01h-2.94v-1.72h7.93Z"></path><path d="M139.91,55.12h-2.11v3.82h-2v-9.74h4.8c.69.01,1.21.1,1.58.25s.68.38.94.68c.21.25.38.52.51.82s.19.64.19,1.02c0,.46-.12.92-.35,1.36s-.62.76-1.16.95c.45.18.77.44.96.77s.28.84.28,1.52v.65c0,.44.02.75.05.91.05.25.18.44.37.55v.24h-2.25c-.06-.22-.11-.39-.13-.52-.05-.27-.08-.55-.09-.84v-.91c-.02-.62-.14-1.04-.36-1.24s-.63-.31-1.23-.31ZM141.15,53.35c.41-.18.61-.55.61-1.1,0-.59-.2-.99-.59-1.19-.22-.11-.55-.17-1-.17h-2.38v2.62h2.32c.46,0,.81-.05,1.04-.16Z"></path><path d="M152.98,49.2l-3.28,6.08v3.66h-2.05v-3.66l-3.39-6.08h2.41l2.03,4.24,1.95-4.24h2.32Z"></path><path d="M162.03,59.21c-1.4,0-2.47-.38-3.21-1.14-.99-.93-1.49-2.27-1.49-4.02s.5-3.12,1.49-4.02c.74-.76,1.81-1.14,3.21-1.14s2.47.38,3.21,1.14c.99.89,1.48,2.23,1.48,4.02s-.49,3.09-1.48,4.02c-.74.76-1.81,1.14-3.21,1.14ZM163.96,56.59c.47-.59.71-1.44.71-2.54s-.24-1.94-.71-2.53-1.12-.9-1.93-.9-1.46.3-1.94.89-.72,1.44-.72,2.54.24,1.94.72,2.54,1.13.89,1.94.89,1.46-.3,1.93-.89Z"></path><path d="M175.22,50.92h-4.91v2.24h4.3v1.69h-4.3v4.08h-2.03v-9.73h6.94v1.71Z"></path><path d="M186.21,58.93v-4.35h-3.83v4.35h-2.03v-9.74h2.03v3.71h3.83v-3.71h2.03v9.74h-2.03Z"></path><path d="M197.02,54.68h-4.76v2.5h5.42v1.75h-7.42v-9.74h7.18v1.72h-5.18v2.07h4.76v1.69Z"></path><path d="M205.01,56.93h-3.61l-.68,2h-2.14l3.5-9.74h2.31l3.47,9.74h-2.22l-.63-2ZM204.44,55.25l-1.22-3.83-1.26,3.83h2.49Z"></path><path d="M209.11,49.2h2.05v7.99h4.85v1.75h-6.9v-9.74Z"></path><path d="M223.53,49.2v1.72h-2.93v8.01h-2.06v-8.01h-2.94v-1.72h7.93Z"></path><path d="M230.57,58.93v-4.35h-3.83v4.35h-2.03v-9.74h2.03v3.71h3.83v-3.71h2.03v9.74h-2.03Z"></path><path d="M237.61,54.27h3.81v1.78h-3.81v-1.78Z"></path><path d="M253.47,54.68h-4.76v2.5h5.42v1.75h-7.42v-9.74h7.18v1.72h-5.18v2.07h4.76v1.69Z"></path><path d="M262.84,49.2v1.72h-2.93v8.01h-2.06v-8.01h-2.94v-1.72h7.93Z"></path><path d="M269.88,58.93v-4.35h-3.83v4.35h-2.03v-9.74h2.03v3.71h3.83v-3.71h2.03v9.74h-2.03Z"></path><path d="M273.71,49.2h2.03v9.74h-2.03v-9.74Z"></path><path d="M281.98,59.21c-1.4,0-2.47-.38-3.21-1.14-.99-.93-1.49-2.27-1.49-4.02s.5-3.12,1.49-4.02c.74-.76,1.81-1.14,3.21-1.14s2.47.38,3.21,1.14c.99.89,1.48,2.23,1.48,4.02s-.49,3.09-1.48,4.02c-.74.76-1.81,1.14-3.21,1.14ZM283.91,56.59c.47-.59.71-1.44.71-2.54s-.24-1.94-.71-2.53-1.12-.9-1.93-.9-1.46.3-1.94.89-.72,1.44-.72,2.54.24,1.94.72,2.54,1.13.89,1.94.89,1.46-.3,1.93-.89Z"></path><path d="M292.39,55.43h-2.08v3.5h-2.03v-9.74h4.27c.98,0,1.77.25,2.35.75.58.5.88,1.28.88,2.33,0,1.15-.29,1.96-.88,2.44s-1.42.71-2.51.71ZM293.35,53.4c.27-.23.4-.6.4-1.11s-.13-.87-.4-1.08-.64-.32-1.13-.32h-1.91v2.87h1.91c.48,0,.86-.12,1.13-.35Z"></path><path d="M297.15,49.2h2.03v9.74h-2.03v-9.74Z"></path><path d="M306.82,56.93h-3.61l-.68,2h-2.14l3.5-9.74h2.31l3.47,9.74h-2.22l-.63-2ZM306.25,55.25l-1.22-3.83-1.26,3.83h2.49Z"></path></g></g></svg>