<svg xmlns:x="ns_extend;" xmlns:i="ns_ai;" xmlns:graph="ns_graphs;" xmlns="http://www.w3.org/2000/svg" xmlns:xlink="http://www.w3.org/1999/xlink" id="Layer_1" x="0px" y="0px" viewBox="0 0 157.1 56" style="enable-background:new 0 0 157.1 56;" xml:space="preserve"> <style type="text/css">  .st0{fill:#FFFFFF;}	.st1{fill:#E1242A;} </style> <metadata>   </metadata> <g>  <path class="st0" d="M21.6,17.7C8.9,26.4,0,38.2,0,38.2l16.6,11.3c0,0,1.4-3.6,1.5-3.7c4,8.2,12.4,10.3,17.2,10.2h86.3  c4.8,0.1,13.4-2,17.4-10.2c0.1,0.3,1.4,3.5,1.4,3.5l16.7-11.1c0,0-9-11.8-21.8-20.6C123.5,9.6,104,0,78.3,0  C58.1,0,38.3,6.1,21.6,17.7z">  </path>  <polygon class="st1" points="53.1,26.6 54.6,23.5 36.1,23.5 34.7,26.6 41.8,26.6 34.4,41.7 39.2,41.7 46.6,26.6  ">  </polygon>  <path class="st1" d="M119.8,36.7c-1.4,1.9-3.3,2.9-4.3,2.2c-1-0.7-0.7-2.9,0.6-4.8c1.4-1.9,3.3-2.9,4.3-2.2  C121.5,32.6,121.2,34.7,119.8,36.7z M103.6,36.6c-1.4,1.9-3.3,2.9-4.3,2.2c-1-0.7-0.7-2.9,0.6-4.8c1.4-1.9,3.3-2.9,4.3-2.2  C105.3,32.5,105,34.6,103.6,36.6 M83.6,35.2c0,0,0.9-3,3.8-4.2c0,0,0.8-0.3,1.3,0.1c0,0,0.6,0.6-0.1,1.7c-0.7,1-2.2,2.8-4,3.4  C84.5,36.1,83,36.8,83.6,35.2 M55.4,36.6c-1.4,1.9-3.3,2.9-4.3,2.2c-1-0.7-0.7-2.9,0.6-4.8C53,32,55,31,56,31.8  C57,32.5,56.7,34.6,55.4,36.6 M124.4,38.9c0,0-0.9,0.4-1.3,0c-0.4-0.4,0-1.2,0-1.2l3.9-8.2h-4l-0.6,1.1c-2.3-2-6.7-1-9.4,1.8  c-1.6,1.6-2.4,3.6-2.6,5.2c-0.7,0.4-1.4,0.8-2.1,1.1c0,0-0.9,0.4-1.3,0c-0.4-0.4,0-1.2,0-1.2l6.9-14.3h-4l-3.6,7.1  c-2.3-2-6.7-1-9.4,1.8c-0.5,0.6-1,1.2-1.4,1.8l0,0c0,0-0.1,0.1-0.1,0.1c-0.1,0.1-0.2,0.3-0.2,0.4c-2.2,3.7-4.9,4.4-4.9,4.4  c-5.7,1.7-6.3-1.1-6.3-1.1c6.4-2.4,8.8-5.1,8.5-7.3c-0.2-2.1-3.1-2.2-3.1-2.2c-4.8-0.3-9,3.1-10,6.4c-0.3,1-0.4,2-0.2,3  c-1.9,1-3,1.2-3,1.2c-1.6,0.5-1.8-0.2-2-0.7c-0.2-0.5-0.9-4.6-0.9-4.6l6.8-4.4h-4.1l-5.1,3.1C69.5,33,70,31.8,70,31.8l4.1-8.4h-4  l-6.7,13.6c-0.8,0.5-2.3,1.4-3.5,1.8c0,0-0.9,0.4-1.3,0c-0.4-0.4,0-1.2,0-1.2l3.9-8.2h-4l-0.6,1.1c-2.3-2-6.7-1-9.4,1.8  S45.1,39,47,40.8c1.5,1.4,4.1,1.2,6.5-0.5c0,0,0.6-0.5,0.9,0.1c0.3,0.6,1.7,2.1,4.9,0.8c0.9-0.4,1.8-0.8,2.7-1.3l-0.8,1.7h4l2-4  l1.7-1.1c0,0,0.5-0.4,0.7,0.5c0,0,0.9,3.4,1.2,3.8s1,1.4,3.8,0.6c1.8-0.5,3.5-1.1,5.2-1.8c0.9,1.3,2.7,2.2,5.7,2.2  c3.2,0,6.3-1.1,8.7-3.2c0.1,0.8,0.4,1.6,1,2.2c1.5,1.4,4.1,1.2,6.5-0.5c0,0,0.6-0.5,0.9,0.1c0.3,0.6,1.7,2.1,4.9,0.8  c1.1-0.4,2.1-0.9,3.1-1.5c0.2,0.4,0.4,0.8,0.8,1.2c1.5,1.4,4.1,1.2,6.5-0.5c0,0,0.6-0.5,0.9,0.1c0.3,0.6,1.7,2.1,4.9,0.8  s4.1-2.4,4.1-2.4l-0.8-1.4C126.2,38.1,125.3,38.6,124.4,38.9">  </path>  <path class="st1" d="M135.6,38.6c0,0-1.9,11-14,11H35.2c-12.1,0-13.8-11.1-13.8-11.1c-0.5-2.9,0.1-5,1-6.3  c8.7-11.5,26-26.9,55.9-26.9c30.1,0,47.6,15.7,56.3,27.2C135.6,33.6,136,35.7,135.6,38.6z M78.3,3.3C30.2,3.3,4.7,37.4,4.7,37.4  l10.5,7.1c0,0,1.3-3.2,4.2-7.7c0,0.6,0.1,1.3,0.2,1.9c1.9,14.3,15.8,14,15.8,14h86.5c0,0,14.1,0.4,16-14c0.1-0.6,0.2-1.2,0.2-1.9  c2.8,4.4,4.1,7.5,4.1,7.5l10.5-7C152.4,37.4,126.5,3.3,78.3,3.3">  </path> </g></svg>