<svg xmlns="http://www.w3.org/2000/svg" id="Layer_2" data-name="Layer 2" viewBox="0 0 308.56 83.04"><defs><style>      .cls-1 {        fill: none;      }      .cls-2 {        fill: #121269;      }      .cls-3 {        fill: #0c106c;      }      .cls-4 {        fill: #2e3191;      }      .cls-5 {        fill: #2f3191;      }      .cls-6 {        fill: #1c1d79;      }      .cls-7 {        fill: #1c1e77;      }      .cls-8 {        fill: #2f3091;      }      .cls-9 {        fill: #fefefe;      }      .cls-10 {        fill: #2e3091;      }    </style></defs><g id="Layer_1-2" data-name="Layer 1"><g><path d="M18.54,30.18h0s0-.01,0-.01c0,0,0,0,0,0,0,0,0,0,0,0-.01,0-.02,0-.03-.02,0,0-.01-.02-.01-.04,0,0,0,0,0,0-.01,0-.03,0-.04-.01-.01-.01-.02-.03-.02-.04,0,0,0,0,0-.01h0s0,0,0,0l.02-.02h0s.02-.01.04-.02c.02,0,.04,0,.06,0,.01,0,.03,0,.04.02,0,0,.02.02.01.04,0,.01,0,.02-.01.03,0,0,0,0,0,0,0,0-.01,0-.01,0,0,0,0,0,0-.01,0,0,0,0,0,0,0,0,0,0,0,0,0-.01,0-.03-.01-.04-.01,0-.03-.01-.04,0-.01,0-.02,0-.04,0-.02,0-.03.02-.04.03,0,0,0,.01,0,.02,0,0,0,.01,0,.01,0,0,.01,0,.02.01,0,0,.02,0,.03,0,0-.01.02-.02.03-.03,0,0,.01,0,.02,0,0,0,.01,0,.01.01,0,0,0,.02,0,.02,0,0,0,0-.01,0,0,0-.02,0-.03,0h0s0,0,0,0c0,0,0,0,0,0,0,0,0,.02.01.02.01,0,.03.01.04.01h0s.01,0,.01,0c0,0,0,0,0,0,0,0,.01,0,.01.01,0,0,0,0,0,0,0,0,0,0,0,0,0,0,0,0,0,0,0,0,0,0,0,0h0s0,0,0,0c0,0,0,.01,0,.02,0,0,0,0,0,.02,0,0,0,0,0,0s0,0-.01,0c-.01,0-.02-.01-.03-.02h0Z"></path><path class="cls-1" d="M18.44,30.02h0s0,0,0,0h0s0,0,0,0h0s0,0,0,0h0Z"></path><path class="cls-1" d="M18.44,30.02h0s0,0,0,0h0s0,0,0,0h0s0,0,0,0Z"></path><path d="M18.59,30.23s0,0,0,0c0,0,0,0,0-.01,0,0,0,0,0,0,.02,0,.03-.02.05-.02,0,0,.02,0,.02-.01h.01s.03-.02.04-.03h.02s0,0,.01,0c0,0,0,0,0,.01,0,0,0,0-.01,0,0,0-.02,0-.03,0-.02.01-.04.02-.06.03,0,0,0,0,.01,0h0s0,.02,0,.02c0,0,0,0,0,0,0,0,0,.01,0,.02,0,0,.02,0,.02,0h0s0,0,.01,0c0,0,0,0,0,0h0s0,0,0,0c0,0,0,0,0,0h0s0,0,0,0c0,0,0,0,0,.01,0,0,0,0,0,0,0,0,0,0-.01,0,0,0,0,0,0,0,0,0,.02.01.03.01h.03s0,0,0,0h0s0,.01-.01.01c0,0-.01,0-.02,0h0s-.02,0-.04-.01c0,0,0,0,0,0,0,0,0-.01,0-.02,0,0,0,0-.01,0,0,0-.01,0-.02-.01-.01-.01-.01-.02,0-.04h-.01s0,0,0,0c0,0,0,0,0,0,0,0,0,0,0,0h0Z"></path><path class="cls-1" d="M18.73,30.25s0,0,.01,0c0,0,0,0,0,0,0,0,0,0,0,0,0,0,0,0,0,0,0,0,0,0,0,0,0,0,0,0,0,0,0,0,0,0,0,0Z"></path><path class="cls-5" d="M.08,0h82.97v69.72c-.16,6.7-6.39,12.67-12.92,13.31H13.26c-6.53-.4-13-5.55-13.2-12.4C-.03,47.07-.02,23.53.08,0Z"></path><path class="cls-9" d="M68.74,79.09c-.14-.22-.51-.13-.73-.14-18.06-.19-36.13.16-54.18-.01-4.45-.52-9.18-4.39-9.18-9.15V3.88h37.2l-4.28,6.29h2.94c-.05.34.13,1.24-.13,1.41l-30.58.07c-1.11,0-1.04,2.47-.85,3.11.05.18.59.63.71.63h6.76l-8.37,26.49c-2.6,11.57,23.21,12.4,20.21.14l-8.23-26.63h20.47v6.42h-7.09v19.47c0,.07.86,1,.94,1.07.6.48,1.99.81,2.3,1.58.27.67.05.9.64,1.64.23.29,2.09,2.06,2.28,1.32-.01-.77-.03-6.48.25-6.68.21-.15,1.37-.09,1.58.11l2.38,3.84c.46-.98,1.14-.83,1.94-1.14,1.29-.5,1.29-2.27,2.81-2.47l-.94-1.47c1.78-.49,3.22-2.22,3.98-3.85,1.81-3.92,1.34-10.78-3.13-12.72-.2-.09-1.05-.42-1.18-.42h-3.01l-.13-6.69h17.53l-8.5,26.62c-2.11,11.69,22.79,11.92,20.21.28l-8.1-26.9h9.17c.06,0,.56-.37.61-.46.18-.29.2-2.3.1-2.66-.05-.18-.59-.63-.71-.63h-30.18v-1.47s3.08,0,3.08,0l-.13-.27-4.42-6.02h35.6v65.51c0,.96-1.15,3.72-1.68,4.61-1.52,2.54-4.72,4.72-7.68,5.1-.08.1-.18.1-.27,0Z"></path><polygon class="cls-9" points="11.59 41.89 18.35 21.01 24.98 41.89 11.59 41.89"></polygon><polygon class="cls-9" points="69.94 41.89 56.89 41.89 63.51 20.88 69.94 41.89"></polygon><path class="cls-9" d="M24.98,44.03c.06.06-.15.78-.2.93-1.69,4.82-12.33,4.59-13.18-.93h13.38Z"></path><path class="cls-9" d="M56.69,44.03h13.18c.38,0-.19,1.34-.31,1.57-2.21,4.15-12,3.7-12.87-1.57Z"></path><path class="cls-9" d="M39.7,34.26v-5.96s.19-.2.2-.2h4.68c.3,0,.86.87.99,1.15.63,1.43.51,3.49-.78,4.54-.12.09-.67.47-.74.47h-4.35Z"></path><path class="cls-3" d="M68.74,79.09c.09,0,.18.01.27,0l.07.13H14.2s.26-.13.26-.13h54.27Z"></path><rect class="cls-6" x="20.16" y="15.12" width="20.34" height=".13"></rect><rect class="cls-7" x="44.25" y="15.12" width="17.26" height=".13"></rect><path class="cls-2" d="M47.19,9.9c-.05.23-.42.13-.6.13-.78.03-1.56-.02-2.34,0-.03-.23.3-.13.47-.13.82-.03,1.65.02,2.48,0Z"></path><path class="cls-10" d="M47.46,49.78l-10.88.11c-.76-.26-1.55-3.4-2.04-4.12-.34-.49-1.03-.93-1.4-1.41-.2-.25-.19-.59-.46-.88-.34-.38-2-.68-.91-1.16,2.75-1.22,4.15,3.3,5.23,5,.59.93.85.89,1.96.98,1,.08,2.65.19,3.62.14,3.68-.19,5.2-3.73,7.89-5.63.82-.58,1.69-.19.87.87-.95,1.2-3.66,3.2-4.22,4.35-.39.8.1,1.03.34,1.75Z"></path><path class="cls-5" d="M46.79,52.86s.55-.53.38-1.11c-.11-.36-.83-.74-1.05-1.03.79.02,2.77-.07,2.52-1.24-.09-.42-.57-.63-.63-.86-.12-.45.89-.86,1.19-1.18.71-.77,1.01-2.1,2.47-2.08l2.35,7.5h-7.23Z"></path><path class="cls-8" d="M39.57,47.51s.47-.09.67-.34c.26-.32.14-.84.56-1.05.74-.35,1.89.17,2.91-.57.55-.41.91-1.38,1.43-1.78.48-.37,1.39-.59,1.93-.88,1.13-.62,1.57-1.35,2.47-2.08.54-.44,1.31-.73,1.79-1.15.34-.3.59-1.02,1.15-.99.17.05.67,1.56.35,1.81-1.45,1.04-3.01,1.98-4.41,3.08-1.84,1.44-4.02,3.96-6.4,4.44-.41.08-2.92.23-2.44-.5Z"></path><path class="cls-4" d="M35.82,50.72h3.75v2.27h-6.16v-7.63c.87.53.51,1.57.74,2.27.31.92,1.9,1.76,1.67,3.08Z"></path><g><path class="cls-5" d="M99.48,30.46h-3.48v5.89h-3.4v-16.38h7.13c1.64,0,2.96.42,3.93,1.27.98.84,1.47,2.15,1.47,3.92,0,1.93-.49,3.3-1.47,4.1-.98.8-2.37,1.2-4.19,1.2ZM101.08,27.05c.44-.39.67-1.01.67-1.87s-.22-1.46-.67-1.82c-.45-.36-1.08-.54-1.88-.54h-3.19v4.82h3.19c.81,0,1.44-.2,1.89-.59Z"></path><path class="cls-5" d="M117.47,36.35v-7.31h-6.4v7.31h-3.39v-16.38h3.39v6.25h6.4v-6.25h3.4v16.38h-3.4Z"></path><path class="cls-5" d="M133.73,32.98h-6.03l-1.13,3.37h-3.58l5.85-16.38h3.87l5.8,16.38h-3.71l-1.06-3.37ZM132.78,30.16l-2.04-6.44-2.11,6.44h4.16Z"></path><path class="cls-5" d="M147.53,29.93h-3.53v6.42h-3.34v-16.38h8.03c1.15.02,2.03.16,2.65.42.62.26,1.14.64,1.57,1.14.36.42.64.88.84,1.38.21.5.31,1.08.31,1.72,0,.78-.2,1.54-.59,2.29s-1.04,1.28-1.94,1.59c.76.3,1.29.73,1.61,1.29s.47,1.41.47,2.56v1.1c0,.75.03,1.26.09,1.52.09.42.3.73.62.93v.41h-3.77c-.1-.36-.18-.66-.22-.88-.09-.46-.14-.93-.14-1.41l-.02-1.52c-.01-1.04-.21-1.74-.57-2.09-.37-.35-1.05-.52-2.06-.52ZM149.61,26.95c.68-.31,1.02-.93,1.02-1.84,0-.99-.33-1.66-.99-2-.37-.19-.93-.29-1.67-.29h-3.98v4.4h3.88c.77,0,1.35-.09,1.73-.27Z"></path><path class="cls-5" d="M160.14,36.35h-3.19v-16.38h4.98l2.98,12.88,2.96-12.88h4.92v16.38h-3.19v-11.08c0-.32,0-.77.01-1.34,0-.57.01-1.02.01-1.33l-3.1,13.75h-3.32l-3.08-13.75c0,.31,0,.75.01,1.33,0,.57.01,1.02.01,1.34v11.08Z"></path><path class="cls-5" d="M185.56,32.98h-6.03l-1.13,3.37h-3.58l5.84-16.38h3.87l5.8,16.38h-3.71l-1.06-3.37ZM184.6,30.16l-2.04-6.44-2.11,6.44h4.16Z"></path><path class="cls-5" d="M203.96,35.13c-1.22,1.12-2.79,1.68-4.69,1.68-2.36,0-4.21-.76-5.56-2.27-1.35-1.52-2.02-3.6-2.02-6.24,0-2.86.77-5.06,2.3-6.61,1.33-1.35,3.03-2.02,5.09-2.02,2.75,0,4.77.9,6.04,2.71.7,1.01,1.08,2.03,1.13,3.06h-3.42c-.22-.79-.51-1.38-.86-1.78-.62-.71-1.54-1.07-2.77-1.07s-2.23.5-2.94,1.51c-.72,1-1.08,2.42-1.08,4.26s.38,3.21,1.14,4.13c.76.92,1.72,1.37,2.89,1.37s2.12-.39,2.75-1.18c.35-.42.64-1.06.87-1.9h3.39c-.3,1.79-1.05,3.24-2.27,4.36Z"></path><path class="cls-5" d="M220.24,29.19h-7.96v4.21h9.07v2.94h-12.41v-16.38h12.01v2.9h-8.67v3.48h7.96v2.84Z"></path><path class="cls-5" d="M233.7,30.04v-10.07h3.48v10.07c0,1.74-.27,3.1-.81,4.07-1.01,1.78-2.93,2.67-5.77,2.67s-4.76-.89-5.78-2.67c-.54-.97-.81-2.33-.81-4.07v-10.07h3.48v10.07c0,1.13.13,1.95.4,2.47.42.92,1.32,1.38,2.71,1.38s2.29-.46,2.7-1.38c.27-.52.4-1.34.4-2.47Z"></path><path class="cls-5" d="M252.35,19.97v2.9h-4.9v13.48h-3.44v-13.48h-4.92v-2.9h13.27Z"></path><path class="cls-5" d="M254.08,19.97h3.4v16.38h-3.4v-16.38Z"></path><path class="cls-5" d="M272.23,35.13c-1.22,1.12-2.79,1.68-4.69,1.68-2.36,0-4.21-.76-5.56-2.27-1.35-1.52-2.02-3.6-2.02-6.24,0-2.86.77-5.06,2.3-6.61,1.33-1.35,3.03-2.02,5.09-2.02,2.75,0,4.77.9,6.04,2.71.7,1.01,1.08,2.03,1.13,3.06h-3.42c-.22-.79-.51-1.38-.86-1.78-.62-.71-1.54-1.07-2.77-1.07s-2.23.5-2.94,1.51c-.72,1-1.08,2.42-1.08,4.26s.38,3.21,1.14,4.13c.76.92,1.72,1.37,2.89,1.37s2.12-.39,2.75-1.18c.35-.42.64-1.06.87-1.9h3.39c-.3,1.79-1.05,3.24-2.27,4.36Z"></path><path class="cls-5" d="M286.69,32.98h-6.03l-1.13,3.37h-3.58l5.84-16.38h3.87l5.8,16.38h-3.71l-1.06-3.37ZM285.74,30.16l-2.04-6.44-2.11,6.44h4.16Z"></path><path class="cls-5" d="M293.54,19.97h3.42v13.43h8.11v2.94h-11.53v-16.38Z"></path><path class="cls-5" d="M95.27,61.29c.81,0,1.46-.09,1.97-.27.96-.34,1.43-.97,1.43-1.9,0-.54-.24-.96-.71-1.26-.47-.29-1.22-.54-2.23-.77l-1.73-.39c-1.7-.38-2.88-.8-3.53-1.25-1.1-.76-1.66-1.94-1.66-3.54,0-1.47.53-2.69,1.6-3.66,1.07-.97,2.63-1.46,4.7-1.46,1.73,0,3.2.46,4.42,1.37,1.22.92,1.86,2.24,1.92,3.98h-3.29c-.06-.99-.49-1.68-1.29-2.1-.53-.27-1.2-.41-1.99-.41-.88,0-1.59.18-2.11.53s-.79.85-.79,1.49c0,.58.26,1.02.78,1.31.33.19,1.04.42,2.13.68l2.82.68c1.24.3,2.17.69,2.8,1.19.98.77,1.47,1.89,1.47,3.34s-.57,2.74-1.72,3.73c-1.14.99-2.76,1.48-4.85,1.48s-3.81-.49-5.03-1.46c-1.22-.97-1.83-2.31-1.83-4.02h3.27c.1.75.31,1.31.61,1.68.56.67,1.51,1.01,2.86,1.01Z"></path><path class="cls-5" d="M111.75,64.11c-2.34,0-4.13-.64-5.37-1.91-1.66-1.56-2.49-3.81-2.49-6.76s.83-5.25,2.49-6.76c1.24-1.27,3.03-1.91,5.37-1.91s4.13.64,5.37,1.91c1.65,1.5,2.48,3.76,2.48,6.76s-.83,5.19-2.48,6.76c-1.24,1.27-3.03,1.91-5.37,1.91ZM114.99,59.71c.79-1,1.19-2.42,1.19-4.27s-.4-3.26-1.19-4.26c-.8-1-1.87-1.51-3.23-1.51s-2.44.5-3.24,1.5c-.81,1-1.21,2.42-1.21,4.27s.4,3.27,1.21,4.27c.81,1,1.89,1.5,3.24,1.5s2.43-.5,3.23-1.5Z"></path><path class="cls-5" d="M133.76,62.43c-1.22,1.12-2.79,1.68-4.69,1.68-2.36,0-4.21-.76-5.56-2.27-1.35-1.52-2.02-3.6-2.02-6.24,0-2.86.77-5.06,2.3-6.61,1.33-1.35,3.03-2.02,5.09-2.02,2.76,0,4.77.9,6.04,2.71.7,1.01,1.08,2.03,1.13,3.06h-3.42c-.22-.79-.51-1.38-.86-1.78-.62-.71-1.54-1.07-2.77-1.07s-2.23.5-2.94,1.51c-.72,1-1.08,2.42-1.08,4.26s.38,3.21,1.14,4.13c.76.92,1.72,1.37,2.89,1.37s2.11-.39,2.74-1.18c.35-.42.64-1.06.87-1.9h3.39c-.3,1.79-1.05,3.24-2.27,4.36Z"></path><path class="cls-5" d="M138.38,47.28h3.4v16.38h-3.4v-16.38Z"></path><path class="cls-5" d="M156.36,56.5h-7.96v4.21h9.07v2.94h-12.41v-16.38h12.01v2.9h-8.67v3.48h7.96v2.84Z"></path><path class="cls-5" d="M172.04,47.28v2.9h-4.9v13.48h-3.44v-13.48h-4.92v-2.9h13.27Z"></path><path class="cls-5" d="M187.27,47.28l-5.48,10.22v6.16h-3.42v-6.16l-5.67-10.22h4.03l3.4,7.13,3.26-7.13h3.88Z"></path><path class="cls-5" d="M202.39,64.11c-2.34,0-4.13-.64-5.37-1.91-1.66-1.56-2.49-3.81-2.49-6.76s.83-5.25,2.49-6.76c1.24-1.27,3.03-1.91,5.37-1.91s4.13.64,5.37,1.91c1.65,1.5,2.48,3.76,2.48,6.76s-.83,5.19-2.48,6.76c-1.24,1.27-3.03,1.91-5.37,1.91ZM205.62,59.71c.79-1,1.19-2.42,1.19-4.27s-.4-3.26-1.19-4.26c-.8-1-1.87-1.51-3.23-1.51s-2.44.5-3.25,1.5-1.21,2.42-1.21,4.27.4,3.27,1.21,4.27,1.89,1.5,3.25,1.5,2.43-.5,3.23-1.5Z"></path><path class="cls-5" d="M224.46,50.18h-8.21v3.77h7.19v2.84h-7.19v6.87h-3.4v-16.36h11.61v2.88Z"></path><path class="cls-5" d="M247.58,63.66h-4.4l-5.06-7.16-1.63,1.68v5.48h-3.37v-16.38h3.37v6.75l6.32-6.75h4.42l-6.71,6.75,7.06,9.63Z"></path><path class="cls-5" d="M260.9,56.5h-7.96v4.21h9.07v2.94h-12.41v-16.38h12.01v2.9h-8.67v3.48h7.96v2.84Z"></path><path class="cls-5" d="M277.93,63.66h-3.42l-6.69-11.63v11.63h-3.19v-16.38h3.59l6.52,11.43v-11.43h3.19v16.38Z"></path><path class="cls-5" d="M294.34,47.28l-5.48,10.22v6.16h-3.42v-6.16l-5.67-10.22h4.03l3.4,7.13,3.26-7.13h3.88Z"></path><path class="cls-5" d="M303.8,60.29h-6.03l-1.13,3.37h-3.58l5.84-16.38h3.87l5.8,16.38h-3.71l-1.06-3.37ZM302.84,57.47l-2.04-6.44-2.11,6.44h4.16Z"></path></g><g><path class="cls-5" d="M11.45,62.13h-1.06v1.8h-1.04v-5h2.18c.5,0,.9.13,1.2.39.3.26.45.66.45,1.2,0,.59-.15,1.01-.45,1.25-.3.24-.72.37-1.28.37ZM11.94,61.08c.14-.12.2-.31.2-.57s-.07-.45-.21-.56c-.14-.11-.33-.17-.58-.17h-.97v1.47h.97c.25,0,.44-.06.58-.18Z"></path><path class="cls-5" d="M16.94,63.92v-2.23h-1.95v2.23h-1.03v-5h1.03v1.91h1.95v-1.91h1.04v5h-1.04Z"></path><path class="cls-5" d="M21.91,62.9h-1.84l-.35,1.03h-1.09l1.78-5h1.18l1.77,5h-1.13l-.32-1.03ZM21.62,62.03l-.62-1.97-.64,1.97h1.27Z"></path><path class="cls-5" d="M26.12,61.96h-1.08v1.96h-1.02v-5h2.45c.35,0,.62.05.81.13.19.08.35.2.48.35.11.13.19.27.26.42.06.15.09.33.09.53,0,.24-.06.47-.18.7s-.32.39-.59.49c.23.09.39.22.49.4s.14.43.14.78v.34c0,.23,0,.38.03.46.03.13.09.22.19.29v.13h-1.15c-.03-.11-.05-.2-.07-.27-.03-.14-.04-.28-.04-.43v-.46c-.01-.32-.07-.53-.18-.64-.11-.11-.32-.16-.63-.16ZM26.76,61.05c.21-.1.31-.28.31-.56,0-.3-.1-.51-.3-.61-.11-.06-.28-.09-.51-.09h-1.21v1.34h1.18c.24,0,.41-.03.53-.08Z"></path><path class="cls-5" d="M29.97,63.92h-.97v-5h1.52l.91,3.93.9-3.93h1.5v5h-.97v-3.38c0-.1,0-.23,0-.41,0-.18,0-.31,0-.41l-.95,4.2h-1.01l-.94-4.2c0,.09,0,.23,0,.41,0,.18,0,.31,0,.41v3.38Z"></path><path class="cls-5" d="M37.73,62.9h-1.84l-.35,1.03h-1.09l1.78-5h1.18l1.77,5h-1.13l-.32-1.03ZM37.44,62.03l-.62-1.97-.64,1.97h1.27Z"></path><path class="cls-5" d="M43.35,63.55c-.37.34-.85.51-1.43.51-.72,0-1.28-.23-1.7-.69-.41-.46-.62-1.1-.62-1.91,0-.87.23-1.55.7-2.02.41-.41.93-.62,1.55-.62.84,0,1.46.28,1.85.83.21.31.33.62.35.93h-1.05c-.07-.24-.15-.42-.26-.54-.19-.22-.47-.33-.84-.33s-.68.15-.9.46c-.22.31-.33.74-.33,1.3s.12.98.35,1.26c.23.28.53.42.88.42s.65-.12.84-.36c.11-.13.19-.32.26-.58h1.03c-.09.55-.32.99-.69,1.33Z"></path><path class="cls-5" d="M48.32,61.74h-2.43v1.29h2.77v.9h-3.79v-5h3.67v.89h-2.65v1.06h2.43v.87Z"></path><path class="cls-5" d="M52.43,62v-3.07h1.06v3.07c0,.53-.08.95-.25,1.24-.31.54-.89.81-1.76.81s-1.45-.27-1.76-.81c-.17-.3-.25-.71-.25-1.24v-3.07h1.06v3.07c0,.34.04.59.12.75.13.28.4.42.83.42s.7-.14.82-.42c.08-.16.12-.41.12-.75Z"></path><path class="cls-5" d="M58.12,58.92v.89h-1.5v4.12h-1.05v-4.12h-1.5v-.89h4.05Z"></path><path class="cls-5" d="M58.65,58.92h1.04v5h-1.04v-5Z"></path><path class="cls-5" d="M64.19,63.55c-.37.34-.85.51-1.43.51-.72,0-1.28-.23-1.7-.69-.41-.46-.62-1.1-.62-1.91,0-.87.23-1.55.7-2.02.41-.41.93-.62,1.55-.62.84,0,1.46.28,1.85.83.21.31.33.62.35.93h-1.05c-.07-.24-.15-.42-.26-.54-.19-.22-.47-.33-.84-.33s-.68.15-.9.46c-.22.31-.33.74-.33,1.3s.12.98.35,1.26c.23.28.53.42.88.42s.65-.12.84-.36c.11-.13.19-.32.26-.58h1.03c-.09.55-.32.99-.69,1.33Z"></path><path class="cls-5" d="M68.61,62.9h-1.84l-.35,1.03h-1.09l1.78-5h1.18l1.77,5h-1.13l-.32-1.03ZM68.32,62.03l-.62-1.97-.64,1.97h1.27Z"></path><path class="cls-5" d="M70.7,58.92h1.05v4.1h2.48v.9h-3.52v-5Z"></path><path class="cls-5" d="M10.16,71.54c.25,0,.45-.03.6-.08.29-.1.44-.3.44-.58,0-.17-.07-.29-.22-.38-.14-.09-.37-.17-.68-.23l-.53-.12c-.52-.12-.88-.25-1.08-.38-.34-.23-.51-.59-.51-1.08,0-.45.16-.82.49-1.12.33-.3.8-.44,1.44-.44.53,0,.98.14,1.35.42.37.28.57.68.59,1.22h-1c-.02-.3-.15-.51-.39-.64-.16-.08-.37-.13-.61-.13-.27,0-.48.05-.64.16s-.24.26-.24.45c0,.18.08.31.24.4.1.06.32.13.65.21l.86.21c.38.09.66.21.86.36.3.24.45.58.45,1.02s-.17.84-.52,1.14c-.35.3-.84.45-1.48.45s-1.16-.15-1.54-.45c-.37-.3-.56-.71-.56-1.23h1c.03.23.09.4.19.51.17.21.46.31.87.31Z"></path><path class="cls-5" d="M15.2,72.4c-.71,0-1.26-.19-1.64-.58-.51-.48-.76-1.16-.76-2.06s.25-1.6.76-2.06c.38-.39.92-.58,1.64-.58s1.26.19,1.64.58c.5.46.76,1.15.76,2.06s-.25,1.59-.76,2.06c-.38.39-.92.58-1.64.58ZM16.18,71.06c.24-.31.36-.74.36-1.3s-.12-.99-.36-1.3c-.24-.31-.57-.46-.99-.46s-.74.15-.99.46c-.25.31-.37.74-.37,1.3s.12,1,.37,1.3c.25.31.58.46.99.46s.74-.15.99-.46Z"></path><path class="cls-5" d="M21.92,71.89c-.37.34-.85.51-1.43.51-.72,0-1.28-.23-1.7-.69-.41-.46-.62-1.1-.62-1.91,0-.87.23-1.55.7-2.02.41-.41.93-.62,1.55-.62.84,0,1.46.28,1.85.83.21.31.33.62.35.93h-1.04c-.07-.24-.15-.42-.26-.54-.19-.22-.47-.33-.84-.33s-.68.15-.9.46c-.22.31-.33.74-.33,1.3s.12.98.35,1.26c.23.28.53.42.88.42s.65-.12.84-.36c.11-.13.19-.32.26-.58h1.03c-.09.55-.32.99-.69,1.33Z"></path><path class="cls-5" d="M23.32,67.26h1.04v5h-1.04v-5Z"></path><path class="cls-5" d="M28.82,70.08h-2.43v1.29h2.77v.9h-3.79v-5h3.67v.89h-2.65v1.06h2.43v.87Z"></path><path class="cls-5" d="M33.61,67.26v.89h-1.5v4.12h-1.05v-4.12h-1.5v-.89h4.05Z"></path><path class="cls-5" d="M38.25,67.26l-1.67,3.12v1.88h-1.05v-1.88l-1.73-3.12h1.23l1.04,2.18.99-2.18h1.18Z"></path><path class="cls-5" d="M42.87,72.4c-.71,0-1.26-.19-1.64-.58-.51-.48-.76-1.16-.76-2.06s.25-1.6.76-2.06c.38-.39.92-.58,1.64-.58s1.26.19,1.64.58c.5.46.76,1.15.76,2.06s-.25,1.59-.76,2.06c-.38.39-.92.58-1.64.58ZM43.86,71.06c.24-.31.36-.74.36-1.3s-.12-.99-.36-1.3c-.24-.31-.57-.46-.99-.46s-.74.15-.99.46-.37.74-.37,1.3.12,1,.37,1.3.58.46.99.46.74-.15.99-.46Z"></path><path class="cls-5" d="M49.61,68.15h-2.51v1.15h2.2v.87h-2.2v2.1h-1.04v-4.99h3.55v.88Z"></path><path class="cls-5" d="M56.67,72.26h-1.34l-1.54-2.19-.5.51v1.67h-1.03v-5h1.03v2.06l1.93-2.06h1.35l-2.05,2.06,2.15,2.94Z"></path><path class="cls-5" d="M60.74,70.08h-2.43v1.29h2.77v.9h-3.79v-5h3.67v.89h-2.65v1.06h2.43v.87Z"></path><path class="cls-5" d="M65.93,72.26h-1.04l-2.04-3.55v3.55h-.97v-5h1.1l1.99,3.49v-3.49h.97v5Z"></path><path class="cls-5" d="M70.95,67.26l-1.67,3.12v1.88h-1.05v-1.88l-1.73-3.12h1.23l1.04,2.18.99-2.18h1.18Z"></path><path class="cls-5" d="M73.83,71.23h-1.84l-.35,1.03h-1.09l1.78-5h1.18l1.77,5h-1.13l-.32-1.03ZM73.54,70.37l-.62-1.97-.64,1.97h1.27Z"></path></g></g></g></svg>