<svg xmlns="http://www.w3.org/2000/svg" id="Layer_2" data-name="Layer 2" viewBox="0 0 415.09 512">
  <defs>
    <style>
      .cls-1 { fill: #ad3795; }
      .cls-2 { fill: #06a4b5; }
      .cls-3 { fill: #55b6c3; }
      .cls-4 { fill: #028c99; }
      .cls-5 { fill: #ed6ed2; }
      .cls-6 { fill: #e84ac7; }
    </style>
  </defs>
  <g id="Layer_1-2" data-name="Layer 1">
    <path class="cls-6" d="M230.04,247.86c0,7.51-6.11,13.62-13.62,13.62H77.83v77.86h138.58c50.43,0,91.48-41.05,91.48-91.48V31.39h-77.86s0,216.48,0,216.48Z"></path>
    <rect class="cls-1" x="230.07" width="77.83" height="77.83"></rect>
    <rect class="cls-5" y="261.52" width="77.83" height="77.83"></rect>
    <path class="cls-2" d="M337.26,204.04v-77.83h-138.61c-50.43,0-91.48,41.05-91.48,91.48v216.48h77.86v-216.48c0-7.51,6.11-13.62,13.62-13.62h138.61v-.03Z"></path>
    <path class="cls-4" d="M337.26,126.21h57.07c11.47,0,20.76,9.32,20.76,20.76v36.28c0,11.47-9.32,20.76-20.76,20.76h-57.07v-77.83h0v.03Z"></path>
    <rect class="cls-3" x="107.23" y="434.17" width="77.83" height="77.83"></rect>
  </g>
</svg>
